G75*
G70*
%OFA0B0*%
%FSLAX24Y24*%
%IPPOS*%
%LPD*%
%AMOC8*
5,1,8,0,0,1.08239X$1,22.5*
%
%ADD10C,0.0050*%
%ADD11C,0.0283*%
%ADD12C,0.0040*%
%ADD13C,0.0060*%
%ADD14C,0.0223*%
D10*
X000736Y001205D02*
X000678Y001263D01*
X000736Y001205D02*
X000853Y001205D01*
X000911Y001263D01*
X000911Y001380D01*
X000853Y001439D01*
X000795Y001439D01*
X000678Y001380D01*
X000678Y001555D01*
X000911Y001555D01*
X001046Y001555D02*
X001046Y001322D01*
X001163Y001205D01*
X001280Y001322D01*
X001280Y001555D01*
X001678Y001497D02*
X001678Y001263D01*
X001736Y001205D01*
X001853Y001205D01*
X001911Y001263D01*
X001911Y001380D01*
X001795Y001380D01*
X001911Y001497D02*
X001853Y001555D01*
X001736Y001555D01*
X001678Y001497D01*
X002046Y001555D02*
X002280Y001205D01*
X002280Y001555D01*
X002046Y001555D02*
X002046Y001205D01*
X002678Y001263D02*
X002736Y001205D01*
X002853Y001205D01*
X002911Y001263D01*
X002911Y001322D01*
X002853Y001380D01*
X002795Y001380D01*
X002853Y001380D02*
X002911Y001439D01*
X002911Y001497D01*
X002853Y001555D01*
X002736Y001555D01*
X002678Y001497D01*
X003046Y001555D02*
X003046Y001322D01*
X003163Y001205D01*
X003280Y001322D01*
X003280Y001555D01*
X003678Y001555D02*
X003853Y001555D01*
X003911Y001497D01*
X003911Y001263D01*
X003853Y001205D01*
X003678Y001205D01*
X003678Y001555D01*
X004046Y001380D02*
X004280Y001380D01*
X004221Y001555D02*
X004046Y001380D01*
X004221Y001205D02*
X004221Y001555D01*
X004678Y001555D02*
X004853Y001555D01*
X004911Y001497D01*
X004911Y001263D01*
X004853Y001205D01*
X004678Y001205D01*
X004678Y001555D01*
X005046Y001555D02*
X005046Y001380D01*
X005163Y001439D01*
X005221Y001439D01*
X005280Y001380D01*
X005280Y001263D01*
X005221Y001205D01*
X005105Y001205D01*
X005046Y001263D01*
X005046Y001555D02*
X005280Y001555D01*
X005678Y001555D02*
X005853Y001555D01*
X005911Y001497D01*
X005911Y001263D01*
X005853Y001205D01*
X005678Y001205D01*
X005678Y001555D01*
X006046Y001380D02*
X006221Y001380D01*
X006280Y001322D01*
X006280Y001263D01*
X006221Y001205D01*
X006105Y001205D01*
X006046Y001263D01*
X006046Y001380D01*
X006163Y001497D01*
X006280Y001555D01*
X006778Y001555D02*
X006953Y001555D01*
X007011Y001497D01*
X007011Y001263D01*
X006953Y001205D01*
X006778Y001205D01*
X006778Y001555D01*
X007146Y001555D02*
X007380Y001555D01*
X007380Y001497D01*
X007146Y001263D01*
X007146Y001205D01*
X007678Y001205D02*
X007853Y001205D01*
X007911Y001263D01*
X007911Y001322D01*
X007853Y001380D01*
X007678Y001380D01*
X007853Y001380D02*
X007911Y001439D01*
X007911Y001497D01*
X007853Y001555D01*
X007678Y001555D01*
X007678Y001205D01*
X008046Y001263D02*
X008105Y001205D01*
X008221Y001205D01*
X008280Y001263D01*
X008280Y001497D01*
X008046Y001263D01*
X008046Y001497D01*
X008105Y001555D01*
X008221Y001555D01*
X008280Y001497D01*
X008678Y001555D02*
X008853Y001555D01*
X008911Y001497D01*
X008911Y001439D01*
X008853Y001380D01*
X008678Y001380D01*
X008853Y001380D02*
X008911Y001322D01*
X008911Y001263D01*
X008853Y001205D01*
X008678Y001205D01*
X008678Y001555D01*
X009046Y001439D02*
X009163Y001555D01*
X009163Y001205D01*
X009046Y001205D02*
X009280Y001205D01*
X009678Y001205D02*
X009853Y001205D01*
X009911Y001263D01*
X009911Y001322D01*
X009853Y001380D01*
X009678Y001380D01*
X009853Y001380D02*
X009911Y001439D01*
X009911Y001497D01*
X009853Y001555D01*
X009678Y001555D01*
X009678Y001205D01*
X010046Y001205D02*
X010280Y001439D01*
X010280Y001497D01*
X010221Y001555D01*
X010105Y001555D01*
X010046Y001497D01*
X010046Y001205D02*
X010280Y001205D01*
X010678Y001205D02*
X010853Y001205D01*
X010911Y001263D01*
X010911Y001322D01*
X010853Y001380D01*
X010678Y001380D01*
X010853Y001380D02*
X010911Y001439D01*
X010911Y001497D01*
X010853Y001555D01*
X010678Y001555D01*
X010678Y001205D01*
X011046Y001263D02*
X011105Y001205D01*
X011221Y001205D01*
X011280Y001263D01*
X011280Y001322D01*
X011221Y001380D01*
X011163Y001380D01*
X011221Y001380D02*
X011280Y001439D01*
X011280Y001497D01*
X011221Y001555D01*
X011105Y001555D01*
X011046Y001497D01*
X011678Y001555D02*
X011678Y001205D01*
X011853Y001205D01*
X011911Y001263D01*
X011911Y001322D01*
X011853Y001380D01*
X011678Y001380D01*
X011853Y001380D02*
X011911Y001439D01*
X011911Y001497D01*
X011853Y001555D01*
X011678Y001555D01*
X012046Y001380D02*
X012280Y001380D01*
X012221Y001555D02*
X012046Y001380D01*
X012221Y001205D02*
X012221Y001555D01*
X012678Y001555D02*
X012853Y001555D01*
X012911Y001497D01*
X012911Y001439D01*
X012853Y001380D01*
X012678Y001380D01*
X012853Y001380D02*
X012911Y001322D01*
X012911Y001263D01*
X012853Y001205D01*
X012678Y001205D01*
X012678Y001555D01*
X013046Y001555D02*
X013046Y001380D01*
X013163Y001439D01*
X013221Y001439D01*
X013280Y001380D01*
X013280Y001263D01*
X013221Y001205D01*
X013105Y001205D01*
X013046Y001263D01*
X013046Y001555D02*
X013280Y001555D01*
X013678Y001555D02*
X013853Y001555D01*
X013911Y001497D01*
X013911Y001439D01*
X013853Y001380D01*
X013678Y001380D01*
X013853Y001380D02*
X013911Y001322D01*
X013911Y001263D01*
X013853Y001205D01*
X013678Y001205D01*
X013678Y001555D01*
X014046Y001380D02*
X014221Y001380D01*
X014280Y001322D01*
X014280Y001263D01*
X014221Y001205D01*
X014105Y001205D01*
X014046Y001263D01*
X014046Y001380D01*
X014163Y001497D01*
X014280Y001555D01*
X014778Y001555D02*
X014953Y001555D01*
X015011Y001497D01*
X015011Y001439D01*
X014953Y001380D01*
X014778Y001380D01*
X014953Y001380D02*
X015011Y001322D01*
X015011Y001263D01*
X014953Y001205D01*
X014778Y001205D01*
X014778Y001555D01*
X015074Y001723D02*
X015232Y001723D01*
X015146Y001555D02*
X015380Y001555D01*
X015380Y001497D01*
X015146Y001263D01*
X015146Y001205D01*
X015678Y001205D02*
X015678Y001439D01*
X015795Y001555D01*
X015911Y001439D01*
X015911Y001205D01*
X016046Y001205D02*
X016280Y001205D01*
X016163Y001205D02*
X016163Y001555D01*
X016046Y001439D01*
X015911Y001380D02*
X015678Y001380D01*
X016678Y001205D02*
X016678Y001555D01*
X016911Y001205D01*
X016911Y001555D01*
X017046Y001497D02*
X017046Y001263D01*
X017105Y001205D01*
X017221Y001205D01*
X017280Y001263D01*
X017280Y001497D02*
X017221Y001555D01*
X017105Y001555D01*
X017046Y001497D01*
X017678Y001555D02*
X017678Y001205D01*
X017911Y001205D02*
X017911Y001555D01*
X018046Y001497D02*
X018046Y001263D01*
X018105Y001205D01*
X018221Y001205D01*
X018280Y001263D01*
X018280Y001497D02*
X018221Y001555D01*
X018105Y001555D01*
X018046Y001497D01*
X017911Y001205D02*
X017678Y001555D01*
X015232Y002037D02*
X015074Y002037D01*
X015074Y002323D02*
X015232Y002323D01*
X015232Y002637D02*
X015074Y002637D01*
X017094Y003963D02*
X017153Y003905D01*
X017269Y003905D01*
X017328Y003963D01*
X017328Y004139D01*
X016978Y004139D01*
X017094Y004139D02*
X017094Y003963D01*
X017153Y004273D02*
X017094Y004332D01*
X017094Y004448D01*
X017153Y004507D01*
X017211Y004507D01*
X017211Y004273D01*
X017269Y004273D02*
X017153Y004273D01*
X017269Y004273D02*
X017328Y004332D01*
X017328Y004448D01*
X017328Y004642D02*
X016978Y004642D01*
X017094Y004642D02*
X017094Y004817D01*
X017153Y004875D01*
X017269Y004875D01*
X017328Y004817D01*
X017328Y004642D01*
X017269Y005010D02*
X017094Y005010D01*
X017269Y005010D02*
X017328Y005068D01*
X017328Y005243D01*
X017094Y005243D01*
X017153Y005378D02*
X017269Y005378D01*
X017328Y005437D01*
X017328Y005612D01*
X017386Y005612D02*
X017445Y005553D01*
X017445Y005495D01*
X017386Y005612D02*
X017094Y005612D01*
X017094Y005437D01*
X017153Y005378D01*
X017153Y005747D02*
X017269Y005747D01*
X017328Y005805D01*
X017328Y005980D01*
X017386Y005980D02*
X017094Y005980D01*
X017094Y005805D01*
X017153Y005747D01*
X017445Y005863D02*
X017445Y005922D01*
X017386Y005980D01*
X017269Y006115D02*
X017153Y006115D01*
X017094Y006173D01*
X017094Y006290D01*
X017153Y006348D01*
X017211Y006348D01*
X017211Y006115D01*
X017269Y006115D02*
X017328Y006173D01*
X017328Y006290D01*
X017328Y006483D02*
X017094Y006483D01*
X017094Y006600D02*
X017094Y006658D01*
X017094Y006600D02*
X017211Y006483D01*
X015370Y005347D02*
X015370Y005013D01*
X015370Y005347D02*
X012920Y007797D01*
X012586Y007797D02*
X010136Y005347D01*
X008932Y005237D02*
X008774Y005237D01*
X008774Y004923D02*
X008932Y004923D01*
X007696Y004780D02*
X007696Y004605D01*
X007580Y004605D02*
X007580Y004780D01*
X007638Y004839D01*
X007696Y004780D01*
X007580Y004780D02*
X007521Y004839D01*
X007463Y004839D01*
X007463Y004605D01*
X007328Y004663D02*
X007270Y004605D01*
X007153Y004605D01*
X007095Y004663D01*
X007095Y004722D01*
X007153Y004780D01*
X007270Y004780D01*
X007328Y004722D01*
X007328Y004663D01*
X007270Y004780D02*
X007328Y004839D01*
X007328Y004897D01*
X007270Y004955D01*
X007153Y004955D01*
X007095Y004897D01*
X007095Y004839D01*
X007153Y004780D01*
X006960Y004780D02*
X006726Y004780D01*
X006595Y004839D02*
X006536Y004839D01*
X006419Y004722D01*
X006419Y004605D02*
X006419Y004839D01*
X006285Y004780D02*
X006285Y004722D01*
X006051Y004722D01*
X006051Y004780D02*
X006051Y004663D01*
X006109Y004605D01*
X006226Y004605D01*
X006285Y004780D02*
X006226Y004839D01*
X006109Y004839D01*
X006051Y004780D01*
X005916Y004780D02*
X005916Y004663D01*
X005858Y004605D01*
X005683Y004605D01*
X005683Y004488D02*
X005683Y004839D01*
X005858Y004839D01*
X005916Y004780D01*
X005548Y004780D02*
X005548Y004663D01*
X005490Y004605D01*
X005314Y004605D01*
X005314Y004488D02*
X005314Y004839D01*
X005490Y004839D01*
X005548Y004780D01*
X005180Y004780D02*
X005180Y004722D01*
X004946Y004722D01*
X004946Y004780D02*
X004946Y004663D01*
X005005Y004605D01*
X005121Y004605D01*
X005180Y004780D02*
X005121Y004839D01*
X005005Y004839D01*
X004946Y004780D01*
X004811Y004780D02*
X004811Y004663D01*
X004753Y004605D01*
X004578Y004605D01*
X004578Y004488D02*
X004578Y004839D01*
X004753Y004839D01*
X004811Y004780D01*
X005762Y004379D02*
X005762Y003867D01*
X006274Y004379D01*
X005762Y004379D01*
X005762Y004351D02*
X006246Y004351D01*
X006197Y004303D02*
X005762Y004303D01*
X005762Y004254D02*
X006149Y004254D01*
X006100Y004206D02*
X005762Y004206D01*
X005762Y004157D02*
X006052Y004157D01*
X006003Y004109D02*
X005762Y004109D01*
X005762Y004060D02*
X005955Y004060D01*
X005906Y004012D02*
X005762Y004012D01*
X005762Y003963D02*
X005858Y003963D01*
X005809Y003915D02*
X005762Y003915D01*
X010295Y002559D02*
X010295Y002401D01*
X010610Y002401D02*
X010610Y002559D01*
X003532Y007723D02*
X003374Y007723D01*
X003374Y008037D02*
X003532Y008037D01*
X003532Y008323D02*
X003374Y008323D01*
X003374Y008637D02*
X003532Y008637D01*
X003636Y008805D02*
X003753Y008805D01*
X003811Y008863D01*
X003946Y008863D02*
X004005Y008805D01*
X004121Y008805D01*
X004180Y008863D01*
X004180Y008922D01*
X004121Y008980D01*
X003946Y008980D01*
X003946Y008863D01*
X003946Y008980D02*
X004063Y009097D01*
X004180Y009155D01*
X003811Y009097D02*
X003753Y009155D01*
X003636Y009155D01*
X003578Y009097D01*
X003578Y008863D01*
X003636Y008805D01*
X003180Y009097D02*
X002946Y008863D01*
X002946Y008805D01*
X002811Y008863D02*
X002753Y008805D01*
X002636Y008805D01*
X002578Y008863D01*
X002578Y009097D01*
X002636Y009155D01*
X002753Y009155D01*
X002811Y009097D01*
X002946Y009155D02*
X003180Y009155D01*
X003180Y009097D01*
X002180Y009155D02*
X002180Y008922D01*
X002063Y008805D01*
X001946Y008922D01*
X001946Y009155D01*
X001811Y009097D02*
X001811Y009039D01*
X001753Y008980D01*
X001811Y008922D01*
X001811Y008863D01*
X001753Y008805D01*
X001636Y008805D01*
X001578Y008863D01*
X001695Y008980D02*
X001753Y008980D01*
X001811Y009097D02*
X001753Y009155D01*
X001636Y009155D01*
X001578Y009097D01*
X001280Y009155D02*
X001280Y008805D01*
X001046Y009155D01*
X001046Y008805D01*
X000911Y008863D02*
X000911Y008980D01*
X000795Y008980D01*
X000911Y008863D02*
X000853Y008805D01*
X000736Y008805D01*
X000678Y008863D01*
X000678Y009097D01*
X000736Y009155D01*
X000853Y009155D01*
X000911Y009097D01*
X004578Y009155D02*
X004578Y008805D01*
X004753Y008805D01*
X004811Y008863D01*
X004811Y009097D01*
X004753Y009155D01*
X004578Y009155D01*
X004946Y009097D02*
X005005Y009155D01*
X005121Y009155D01*
X005180Y009097D01*
X005180Y009039D01*
X005121Y008980D01*
X005180Y008922D01*
X005180Y008863D01*
X005121Y008805D01*
X005005Y008805D01*
X004946Y008863D01*
X005063Y008980D02*
X005121Y008980D01*
X005578Y008805D02*
X005753Y008805D01*
X005811Y008863D01*
X005811Y009097D01*
X005753Y009155D01*
X005578Y009155D01*
X005578Y008805D01*
X005946Y008805D02*
X006180Y009039D01*
X006180Y009097D01*
X006121Y009155D01*
X006005Y009155D01*
X005946Y009097D01*
X005946Y008805D02*
X006180Y008805D01*
X006578Y008805D02*
X006753Y008805D01*
X006811Y008863D01*
X006811Y009097D01*
X006753Y009155D01*
X006578Y009155D01*
X006578Y008805D01*
X006946Y008805D02*
X007180Y008805D01*
X007063Y008805D02*
X007063Y009155D01*
X006946Y009039D01*
X007578Y009155D02*
X007578Y008805D01*
X007753Y008805D01*
X007811Y008863D01*
X007811Y009097D01*
X007753Y009155D01*
X007578Y009155D01*
X007946Y009097D02*
X008005Y009155D01*
X008121Y009155D01*
X008180Y009097D01*
X007946Y008863D01*
X008005Y008805D01*
X008121Y008805D01*
X008180Y008863D01*
X008180Y009097D01*
X007946Y009097D02*
X007946Y008863D01*
X008578Y008863D02*
X008636Y008805D01*
X008753Y008805D01*
X008811Y008863D01*
X008946Y008805D02*
X009180Y009039D01*
X009180Y009097D01*
X009121Y009155D01*
X009005Y009155D01*
X008946Y009097D01*
X008811Y009097D02*
X008753Y009155D01*
X008636Y009155D01*
X008578Y009097D01*
X008578Y008863D01*
X008946Y008805D02*
X009180Y008805D01*
X009578Y008863D02*
X009636Y008805D01*
X009753Y008805D01*
X009811Y008863D01*
X009946Y008805D02*
X010180Y008805D01*
X010063Y008805D02*
X010063Y009155D01*
X009946Y009039D01*
X009811Y009097D02*
X009753Y009155D01*
X009636Y009155D01*
X009578Y009097D01*
X009578Y008863D01*
X010578Y008863D02*
X010636Y008805D01*
X010753Y008805D01*
X010811Y008863D01*
X010946Y008863D02*
X011180Y009097D01*
X011180Y008863D01*
X011121Y008805D01*
X011005Y008805D01*
X010946Y008863D01*
X010946Y009097D01*
X011005Y009155D01*
X011121Y009155D01*
X011180Y009097D01*
X010811Y009097D02*
X010753Y009155D01*
X010636Y009155D01*
X010578Y009097D01*
X010578Y008863D01*
X011578Y008805D02*
X011811Y008805D01*
X011946Y008805D02*
X012180Y009039D01*
X012180Y009097D01*
X012121Y009155D01*
X012005Y009155D01*
X011946Y009097D01*
X011811Y009155D02*
X011578Y009155D01*
X011578Y008805D01*
X011578Y008980D02*
X011695Y008980D01*
X011946Y008805D02*
X012180Y008805D01*
X012578Y008805D02*
X012811Y008805D01*
X012946Y008805D02*
X013180Y008805D01*
X013063Y008805D02*
X013063Y009155D01*
X012946Y009039D01*
X012811Y009155D02*
X012578Y009155D01*
X012578Y008805D01*
X012578Y008980D02*
X012695Y008980D01*
X013578Y008980D02*
X013695Y008980D01*
X013946Y008863D02*
X014180Y009097D01*
X014180Y008863D01*
X014121Y008805D01*
X014005Y008805D01*
X013946Y008863D01*
X013946Y009097D01*
X014005Y009155D01*
X014121Y009155D01*
X014180Y009097D01*
X013811Y009155D02*
X013578Y009155D01*
X013578Y008805D01*
X013811Y008805D01*
X014274Y008637D02*
X014432Y008637D01*
X014578Y008805D02*
X014578Y009039D01*
X014695Y009155D01*
X014811Y009039D01*
X014811Y008805D01*
X014946Y008863D02*
X015005Y008805D01*
X015121Y008805D01*
X015180Y008863D01*
X015180Y008980D01*
X015121Y009039D01*
X015063Y009039D01*
X014946Y008980D01*
X014946Y009155D01*
X015180Y009155D01*
X014811Y008980D02*
X014578Y008980D01*
X015578Y008980D02*
X015811Y008980D01*
X015811Y009039D02*
X015811Y008805D01*
X015946Y008863D02*
X016005Y008805D01*
X016121Y008805D01*
X016180Y008863D01*
X016180Y008922D01*
X016121Y008980D01*
X016063Y008980D01*
X016121Y008980D02*
X016180Y009039D01*
X016180Y009097D01*
X016121Y009155D01*
X016005Y009155D01*
X015946Y009097D01*
X015811Y009039D02*
X015695Y009155D01*
X015578Y009039D01*
X015578Y008805D01*
X016578Y008805D02*
X016578Y009039D01*
X016695Y009155D01*
X016811Y009039D01*
X016811Y008805D01*
X016946Y008805D02*
X017180Y009039D01*
X017180Y009097D01*
X017121Y009155D01*
X017005Y009155D01*
X016946Y009097D01*
X016811Y008980D02*
X016578Y008980D01*
X016946Y008805D02*
X017180Y008805D01*
X017678Y008805D02*
X017678Y009155D01*
X017911Y008805D01*
X017911Y009155D01*
X018046Y009097D02*
X018046Y008863D01*
X018105Y008805D01*
X018221Y008805D01*
X018280Y008863D01*
X018280Y009097D02*
X018221Y009155D01*
X018105Y009155D01*
X018046Y009097D01*
X014432Y008323D02*
X014274Y008323D01*
X010710Y007959D02*
X010710Y007801D01*
X010395Y007801D02*
X010395Y007959D01*
D11*
X017553Y002180D03*
D12*
X017319Y002283D02*
X017272Y002236D01*
X017319Y002283D02*
X017319Y002329D01*
X017272Y002376D01*
X017039Y002376D01*
X017039Y002329D02*
X017039Y002423D01*
X017132Y002531D02*
X017039Y002624D01*
X017319Y002624D01*
X017319Y002531D02*
X017319Y002717D01*
X016834Y003289D02*
X016647Y003289D01*
X016741Y003289D02*
X016741Y003569D01*
X016647Y003475D01*
X016540Y003522D02*
X016540Y003335D01*
X016493Y003289D01*
X016353Y003289D01*
X016353Y003569D01*
X016493Y003569D01*
X016540Y003522D01*
X016493Y003689D02*
X016353Y003689D01*
X016353Y003969D01*
X016493Y003969D01*
X016540Y003922D01*
X016540Y003735D01*
X016493Y003689D01*
X016647Y003689D02*
X016834Y003875D01*
X016834Y003922D01*
X016788Y003969D01*
X016694Y003969D01*
X016647Y003922D01*
X016647Y003689D02*
X016834Y003689D01*
X015903Y004834D02*
X015623Y005021D01*
X015623Y005129D02*
X015623Y005315D01*
X015623Y005222D02*
X015903Y005222D01*
X015903Y005423D02*
X015903Y005610D01*
X015903Y005517D02*
X015623Y005517D01*
X015716Y005423D01*
X015903Y005021D02*
X015623Y004834D01*
X014556Y002385D02*
X014416Y002244D01*
X014603Y002244D01*
X014556Y002104D02*
X014556Y002385D01*
X014308Y002338D02*
X014308Y002244D01*
X014262Y002198D01*
X014122Y002198D01*
X014215Y002198D02*
X014308Y002104D01*
X014262Y001985D02*
X014122Y001985D01*
X014122Y001704D01*
X014122Y001798D02*
X014262Y001798D01*
X014308Y001844D01*
X014308Y001938D01*
X014262Y001985D01*
X014416Y001938D02*
X014463Y001985D01*
X014556Y001985D01*
X014603Y001938D01*
X014603Y001891D01*
X014556Y001844D01*
X014603Y001798D01*
X014603Y001751D01*
X014556Y001704D01*
X014463Y001704D01*
X014416Y001751D01*
X014308Y001704D02*
X014215Y001798D01*
X014510Y001844D02*
X014556Y001844D01*
X014122Y002104D02*
X014122Y002385D01*
X014262Y002385D01*
X014308Y002338D01*
X011028Y002469D02*
X011028Y002563D01*
X010982Y002609D01*
X010982Y002717D02*
X011028Y002764D01*
X011028Y002857D01*
X010982Y002904D01*
X010935Y002904D01*
X010888Y002857D01*
X010888Y002811D01*
X010888Y002857D02*
X010842Y002904D01*
X010795Y002904D01*
X010748Y002857D01*
X010748Y002764D01*
X010795Y002717D01*
X010795Y002609D02*
X010748Y002563D01*
X010748Y002469D01*
X010795Y002423D01*
X010982Y002423D01*
X011028Y002469D01*
X009207Y003284D02*
X009207Y003378D01*
X009160Y003424D01*
X009207Y003532D02*
X009020Y003719D01*
X008974Y003719D01*
X008927Y003672D01*
X008927Y003579D01*
X008974Y003532D01*
X008974Y003424D02*
X008927Y003378D01*
X008927Y003284D01*
X008974Y003237D01*
X009160Y003237D01*
X009207Y003284D01*
X009207Y003532D02*
X009207Y003719D01*
X008903Y004504D02*
X008716Y004504D01*
X008903Y004691D01*
X008903Y004738D01*
X008856Y004785D01*
X008763Y004785D01*
X008716Y004738D01*
X008608Y004738D02*
X008608Y004644D01*
X008562Y004598D01*
X008422Y004598D01*
X008515Y004598D02*
X008608Y004504D01*
X008422Y004504D02*
X008422Y004785D01*
X008562Y004785D01*
X008608Y004738D01*
X008565Y005720D02*
X008378Y005720D01*
X008565Y005907D01*
X008565Y005954D01*
X008518Y006001D01*
X008425Y006001D01*
X008378Y005954D01*
X008270Y006001D02*
X008270Y005720D01*
X008177Y005814D01*
X008083Y005720D01*
X008083Y006001D01*
X007975Y005954D02*
X007929Y006001D01*
X007835Y006001D01*
X007789Y005954D01*
X007789Y005907D01*
X007835Y005861D01*
X007929Y005861D01*
X007975Y005814D01*
X007975Y005767D01*
X007929Y005720D01*
X007835Y005720D01*
X007789Y005767D01*
X009381Y006242D02*
X009447Y006308D01*
X009414Y006275D02*
X009612Y006076D01*
X009579Y006043D02*
X009645Y006110D01*
X009685Y006215D02*
X009751Y006215D01*
X009817Y006281D01*
X009817Y006347D01*
X009926Y006391D02*
X010059Y006523D01*
X009926Y006391D02*
X009926Y006655D01*
X009893Y006688D01*
X009827Y006688D01*
X009761Y006622D01*
X009761Y006556D01*
X009685Y006480D02*
X009619Y006480D01*
X009553Y006414D01*
X009553Y006347D01*
X009685Y006215D01*
X010995Y007823D02*
X010948Y007869D01*
X010948Y007963D01*
X010995Y008009D01*
X010948Y008117D02*
X011088Y008117D01*
X011042Y008211D01*
X011042Y008257D01*
X011088Y008304D01*
X011182Y008304D01*
X011228Y008257D01*
X011228Y008164D01*
X011182Y008117D01*
X011182Y008009D02*
X011228Y007963D01*
X011228Y007869D01*
X011182Y007823D01*
X010995Y007823D01*
X010948Y008117D02*
X010948Y008304D01*
X014061Y008109D02*
X014061Y007922D01*
X014108Y007876D01*
X014201Y007876D01*
X014248Y007922D01*
X014356Y008016D02*
X014543Y008016D01*
X014496Y007876D02*
X014496Y008156D01*
X014356Y008016D01*
X014248Y008109D02*
X014201Y008156D01*
X014108Y008156D01*
X014061Y008109D01*
X015927Y008119D02*
X015927Y007932D01*
X015974Y007824D02*
X015927Y007778D01*
X015927Y007684D01*
X015974Y007637D01*
X016160Y007637D01*
X016207Y007684D01*
X016207Y007778D01*
X016160Y007824D01*
X016160Y007932D02*
X016207Y007932D01*
X016160Y007932D02*
X015974Y008119D01*
X015927Y008119D01*
X017548Y008413D02*
X017594Y008366D01*
X017641Y008366D01*
X017688Y008413D01*
X017688Y008646D01*
X017734Y008646D02*
X017641Y008646D01*
X017842Y008600D02*
X017889Y008646D01*
X017982Y008646D01*
X018029Y008600D01*
X018029Y008553D01*
X017982Y008506D01*
X018029Y008459D01*
X018029Y008413D01*
X017982Y008366D01*
X017889Y008366D01*
X017842Y008413D01*
X017936Y008506D02*
X017982Y008506D01*
X007799Y002227D02*
X007799Y001947D01*
X007706Y001947D02*
X007892Y001947D01*
X007706Y002134D02*
X007799Y002227D01*
X007598Y002180D02*
X007551Y002227D01*
X007458Y002227D01*
X007411Y002180D01*
X007411Y001994D01*
X007458Y001947D01*
X007551Y001947D01*
X007598Y001994D01*
X007308Y001947D02*
X007215Y001947D01*
X007261Y001947D02*
X007261Y002227D01*
X007215Y002227D02*
X007308Y002227D01*
X002028Y002054D02*
X001841Y002054D01*
X001934Y002054D02*
X001934Y002335D01*
X001841Y002241D01*
X001733Y002288D02*
X001686Y002335D01*
X001593Y002335D01*
X001546Y002288D01*
X001546Y002101D01*
X001593Y002054D01*
X001686Y002054D01*
X001733Y002101D01*
X005220Y005660D02*
X005173Y005706D01*
X005220Y005660D02*
X005313Y005660D01*
X005360Y005706D01*
X005360Y005753D01*
X005313Y005800D01*
X005220Y005800D01*
X005173Y005846D01*
X005173Y005893D01*
X005220Y005940D01*
X005313Y005940D01*
X005360Y005893D01*
X005468Y005940D02*
X005468Y005660D01*
X005561Y005753D01*
X005655Y005660D01*
X005655Y005940D01*
X005762Y005846D02*
X005856Y005940D01*
X005856Y005660D01*
X005949Y005660D02*
X005762Y005660D01*
X002703Y007704D02*
X002516Y007704D01*
X002610Y007704D02*
X002610Y007985D01*
X002516Y007891D01*
X002408Y007844D02*
X002362Y007798D01*
X002222Y007798D01*
X002315Y007798D02*
X002408Y007704D01*
X002408Y007844D02*
X002408Y007938D01*
X002362Y007985D01*
X002222Y007985D01*
X002222Y007704D01*
X002308Y008276D02*
X002401Y008276D01*
X002448Y008322D01*
X002556Y008322D02*
X002602Y008276D01*
X002696Y008276D01*
X002743Y008322D01*
X002743Y008369D01*
X002696Y008416D01*
X002556Y008416D01*
X002556Y008322D01*
X002556Y008416D02*
X002649Y008509D01*
X002743Y008556D01*
X002448Y008509D02*
X002401Y008556D01*
X002308Y008556D01*
X002261Y008509D01*
X002261Y008322D01*
X002308Y008276D01*
X001158Y007730D02*
X001017Y007590D01*
X001204Y007590D01*
X001158Y007450D02*
X001158Y007730D01*
X000910Y007730D02*
X000816Y007730D01*
X000863Y007730D02*
X000863Y007497D01*
X000816Y007450D01*
X000770Y007450D01*
X000723Y007497D01*
X017648Y001713D02*
X017694Y001666D01*
X017741Y001666D01*
X017788Y001713D01*
X017788Y001946D01*
X017834Y001946D02*
X017741Y001946D01*
X017942Y001900D02*
X017989Y001946D01*
X018082Y001946D01*
X018129Y001900D01*
X018129Y001853D01*
X017942Y001666D01*
X018129Y001666D01*
D13*
X016710Y001744D02*
X016395Y001744D01*
X015844Y001901D02*
X015844Y002059D01*
X016395Y002216D02*
X016710Y002216D01*
X016710Y002644D02*
X016395Y002644D01*
X015844Y002801D02*
X015844Y002959D01*
X016395Y003116D02*
X016710Y003116D01*
X016847Y004274D02*
X016059Y004274D01*
X016059Y004393D01*
X016059Y004826D02*
X016059Y004944D01*
X015370Y005013D02*
X012920Y002563D01*
X012586Y002563D01*
X010136Y005013D01*
X010136Y005347D01*
X009334Y005999D02*
X006972Y005999D01*
X006972Y008361D01*
X009334Y008361D01*
X009334Y005999D01*
X006734Y005999D02*
X004372Y005999D01*
X004372Y008361D01*
X006734Y008361D01*
X006734Y005999D01*
X006943Y004379D02*
X005762Y004379D01*
X005762Y001781D01*
X006943Y001781D01*
X006943Y004379D01*
X008238Y003610D02*
X008277Y003610D01*
X008238Y003610D02*
X008238Y002508D01*
X008277Y002508D01*
X008238Y002508D02*
X008238Y002350D01*
X008277Y002350D01*
X008828Y002350D02*
X008868Y002350D01*
X008868Y002508D01*
X008828Y002508D01*
X008868Y002508D02*
X008868Y003610D01*
X008828Y003610D01*
X003831Y003920D02*
X003831Y004353D01*
X002925Y003645D02*
X001902Y003645D01*
X000721Y003645D02*
X000130Y003645D01*
X000130Y006676D01*
X000760Y006676D01*
X001902Y006676D02*
X002925Y006676D01*
X003831Y006440D02*
X003831Y006007D01*
X003683Y002495D02*
X003525Y002495D01*
X003525Y002456D01*
X003525Y002495D02*
X002423Y002495D01*
X002423Y002456D01*
X002423Y001904D02*
X002423Y001865D01*
X003525Y001865D01*
X003525Y001904D01*
X003525Y001865D02*
X003683Y001865D01*
X003683Y001904D01*
X003683Y002456D02*
X003683Y002495D01*
X012586Y007797D02*
X012920Y007797D01*
X016059Y006086D02*
X016847Y006086D01*
X016847Y005967D01*
X016847Y005534D02*
X016847Y005416D01*
X016059Y005416D02*
X016059Y005534D01*
X016059Y005967D02*
X016059Y006086D01*
X016338Y006750D02*
X016338Y006908D01*
X016377Y006908D01*
X016338Y006908D02*
X016338Y008010D01*
X016377Y008010D01*
X016928Y008010D02*
X016968Y008010D01*
X016968Y006908D01*
X016928Y006908D01*
X016968Y006908D02*
X016968Y006750D01*
X016928Y006750D01*
X016377Y006750D02*
X016338Y006750D01*
X016847Y004944D02*
X016847Y004826D01*
X016847Y004393D02*
X016847Y004274D01*
D14*
X009691Y004846D03*
X004896Y004419D03*
M02*
