%
M48
M72
T01C0.0120
T02C0.0354
T03C0.0433
%
T01
X2553Y2980
X6953Y5080
X7253Y5380
X8053Y6180
X9053Y7180
X10053Y7580
X9653Y7880
X10153Y6780
X11053Y5980
X11753Y5780
X10853Y5380
X11753Y6380
X12153Y6480
X12653Y6680
X12553Y7180
X12953Y7380
X12853Y8380
X15053Y7880
X15353Y8180
X15753Y7780
X14953Y7380
X14753Y5080
X14453Y4780
X13653Y4680
X13453Y3980
X12053Y3680
X11653Y4280
X10153Y3380
X9553Y3580
X9453Y4080
X8853Y4380
X9753Y2980
X14453Y1480
X15353Y2980
X14853Y3080
X15553Y3380
X16953Y3680
X5453Y6280
X5453Y8080
T02
X2453Y6046
X2453Y4314
T03
X953Y680
X1953Y680
X2953Y680
X3953Y680
X4953Y680
X5953Y680
X6953Y680
X7953Y680
X8953Y680
X9953Y680
X10953Y680
X11953Y680
X12953Y680
X13953Y680
X14953Y680
X15953Y680
X16953Y680
X17953Y680
X17953Y2680
X17953Y3680
X17953Y4680
X17953Y5680
X17953Y6680
X17953Y7680
X17953Y9680
X16953Y9680
X15953Y9680
X14953Y9680
X13953Y9680
X12953Y9680
X11953Y9680
X10953Y9680
X9953Y9680
X8953Y9680
X7953Y9680
X6953Y9680
X5953Y9680
X4953Y9680
X3953Y9680
X2953Y9680
X1953Y9680
X953Y9680
M30
