G75*
G70*
%OFA0B0*%
%FSLAX24Y24*%
%IPPOS*%
%LPD*%
%AMOC8*
5,1,8,0,0,1.08239X$1,22.5*
%
%ADD10C,0.0650*%
%ADD11C,0.0160*%
%ADD12C,0.0080*%
%ADD13C,0.0280*%
%ADD14C,0.0120*%
D10*
X000953Y000680D03*
X001953Y000680D03*
X002953Y000680D03*
X003953Y000680D03*
X004953Y000680D03*
X005953Y000680D03*
X006953Y000680D03*
X007953Y000680D03*
X008953Y000680D03*
X009953Y000680D03*
X010953Y000680D03*
X011953Y000680D03*
X012953Y000680D03*
X013953Y000680D03*
X014953Y000680D03*
X015953Y000680D03*
X016953Y000680D03*
X017953Y000680D03*
X017953Y002680D03*
X017953Y003680D03*
X017953Y004680D03*
X017953Y005680D03*
X017953Y006680D03*
X017953Y007680D03*
X017953Y009680D03*
X016953Y009680D03*
X015953Y009680D03*
X014953Y009680D03*
X013953Y009680D03*
X012953Y009680D03*
X011953Y009680D03*
X010953Y009680D03*
X009953Y009680D03*
X008953Y009680D03*
X007953Y009680D03*
X006953Y009680D03*
X005953Y009680D03*
X004953Y009680D03*
X003953Y009680D03*
X002953Y009680D03*
X001953Y009680D03*
X000953Y009680D03*
D11*
X000981Y009690D02*
X001468Y009690D01*
X001458Y009708D02*
X001458Y009720D01*
X001445Y009798D01*
X001421Y009874D01*
X001385Y009945D01*
X001347Y009996D01*
X001583Y009996D01*
X001542Y009955D01*
X001468Y009776D01*
X001468Y009584D01*
X001542Y009405D01*
X001678Y009269D01*
X001733Y009246D01*
X001733Y009189D01*
X001862Y009060D01*
X001962Y008960D01*
X003662Y008960D01*
X003862Y008760D01*
X004462Y008760D01*
X004762Y008460D01*
X006162Y008460D01*
X006462Y008160D01*
X007262Y008160D01*
X007462Y007960D01*
X007762Y007960D01*
X007833Y007889D01*
X007833Y006384D01*
X007799Y006350D01*
X007753Y006240D01*
X007753Y006120D01*
X007799Y006010D01*
X007883Y005926D01*
X007993Y005880D01*
X008113Y005880D01*
X008223Y005926D01*
X008307Y006010D01*
X008353Y006120D01*
X008353Y006240D01*
X008307Y006350D01*
X008273Y006384D01*
X008273Y007749D01*
X008533Y007489D01*
X008662Y007360D01*
X009849Y007360D01*
X009883Y007326D01*
X009993Y007280D01*
X010113Y007280D01*
X010223Y007326D01*
X010307Y007410D01*
X010353Y007520D01*
X010353Y007640D01*
X010307Y007750D01*
X010223Y007834D01*
X010113Y007880D01*
X009993Y007880D01*
X009953Y007863D01*
X009953Y007940D01*
X009936Y007980D01*
X010170Y007980D01*
X010253Y007897D01*
X010370Y007780D01*
X010670Y007780D01*
X010853Y007597D01*
X010853Y006204D01*
X010799Y006150D01*
X010753Y006040D01*
X010753Y005920D01*
X010799Y005810D01*
X010883Y005726D01*
X010993Y005680D01*
X011113Y005680D01*
X011223Y005726D01*
X011307Y005810D01*
X011346Y005904D01*
X011370Y005880D01*
X011453Y005797D01*
X011453Y005720D01*
X011499Y005610D01*
X011583Y005526D01*
X011693Y005480D01*
X011813Y005480D01*
X011923Y005526D01*
X012007Y005610D01*
X012053Y005720D01*
X012053Y005840D01*
X012007Y005950D01*
X011923Y006034D01*
X011813Y006080D01*
X011923Y006126D01*
X012007Y006210D01*
X012009Y006215D01*
X012093Y006180D01*
X012213Y006180D01*
X012323Y006226D01*
X012407Y006310D01*
X012453Y006420D01*
X012453Y006456D01*
X012483Y006426D01*
X012593Y006380D01*
X012713Y006380D01*
X012823Y006426D01*
X012907Y006510D01*
X012953Y006620D01*
X012953Y006740D01*
X012907Y006850D01*
X012823Y006934D01*
X012758Y006961D01*
X012807Y007010D01*
X012844Y007100D01*
X012893Y007080D01*
X013013Y007080D01*
X013123Y007126D01*
X013207Y007210D01*
X013253Y007320D01*
X013253Y007440D01*
X013207Y007550D01*
X013123Y007634D01*
X013013Y007680D01*
X012936Y007680D01*
X012753Y007863D01*
X012753Y008963D01*
X012736Y008980D01*
X012770Y008980D01*
X012970Y008780D01*
X013670Y008780D01*
X013870Y008580D01*
X014553Y008580D01*
X014553Y007497D01*
X014653Y007397D01*
X014653Y007320D01*
X014699Y007210D01*
X014783Y007126D01*
X014893Y007080D01*
X015013Y007080D01*
X015123Y007126D01*
X015207Y007210D01*
X015253Y007320D01*
X015253Y007440D01*
X015207Y007550D01*
X015158Y007599D01*
X015223Y007626D01*
X015307Y007710D01*
X015353Y007820D01*
X015353Y007880D01*
X015413Y007880D01*
X015481Y007909D01*
X015453Y007840D01*
X015453Y007720D01*
X015499Y007610D01*
X015583Y007526D01*
X015677Y007487D01*
X014553Y006363D01*
X014553Y005304D01*
X014499Y005250D01*
X014453Y005140D01*
X014453Y005080D01*
X014393Y005080D01*
X014283Y005034D01*
X014199Y004950D01*
X014153Y004840D01*
X014153Y004720D01*
X014199Y004610D01*
X014283Y004526D01*
X014393Y004480D01*
X014513Y004480D01*
X014623Y004526D01*
X014677Y004580D01*
X015036Y004580D01*
X015236Y004780D01*
X015253Y004797D01*
X015253Y004663D01*
X014770Y004180D01*
X013677Y004180D01*
X013623Y004234D01*
X013513Y004280D01*
X013393Y004280D01*
X013283Y004234D01*
X013199Y004150D01*
X013153Y004040D01*
X013153Y003920D01*
X013199Y003810D01*
X013283Y003726D01*
X013393Y003680D01*
X013513Y003680D01*
X013623Y003726D01*
X013677Y003780D01*
X014936Y003780D01*
X015053Y003897D01*
X015653Y004497D01*
X015653Y006197D01*
X015936Y006480D01*
X017511Y006480D01*
X017542Y006405D01*
X017678Y006269D01*
X017856Y006195D01*
X018049Y006195D01*
X018227Y006269D01*
X018268Y006309D01*
X018268Y006051D01*
X018227Y006091D01*
X018049Y006165D01*
X017856Y006165D01*
X017678Y006091D01*
X017542Y005955D01*
X017468Y005776D01*
X017468Y005678D01*
X017370Y005580D01*
X017253Y005463D01*
X017253Y004463D01*
X017170Y004380D01*
X015670Y004380D01*
X014870Y003580D01*
X014753Y003463D01*
X014753Y003363D01*
X014683Y003334D01*
X014599Y003250D01*
X014553Y003140D01*
X014553Y003020D01*
X014599Y002910D01*
X014653Y002856D01*
X014653Y001704D01*
X014623Y001734D01*
X014513Y001780D01*
X014393Y001780D01*
X014283Y001734D01*
X014249Y001700D01*
X012344Y001700D01*
X012273Y001771D01*
X012273Y003476D01*
X012307Y003510D01*
X012353Y003620D01*
X012353Y003740D01*
X012307Y003850D01*
X012223Y003934D01*
X012113Y003980D01*
X011993Y003980D01*
X011883Y003934D01*
X011799Y003850D01*
X011753Y003740D01*
X011753Y003620D01*
X011799Y003510D01*
X011833Y003476D01*
X011833Y001589D01*
X012033Y001389D01*
X012162Y001260D01*
X014249Y001260D01*
X014283Y001226D01*
X014393Y001180D01*
X014513Y001180D01*
X014623Y001226D01*
X014653Y001256D01*
X014653Y001066D01*
X014542Y000955D01*
X014468Y000776D01*
X014468Y000584D01*
X014542Y000405D01*
X014587Y000360D01*
X014318Y000360D01*
X014364Y000405D01*
X014438Y000584D01*
X014438Y000776D01*
X014364Y000955D01*
X014227Y001091D01*
X014049Y001165D01*
X013856Y001165D01*
X013678Y001091D01*
X013542Y000955D01*
X013468Y000776D01*
X013468Y000584D01*
X013542Y000405D01*
X013587Y000360D01*
X013318Y000360D01*
X013364Y000405D01*
X013438Y000584D01*
X013438Y000776D01*
X013364Y000955D01*
X013227Y001091D01*
X013049Y001165D01*
X012856Y001165D01*
X012678Y001091D01*
X012542Y000955D01*
X012468Y000776D01*
X012468Y000584D01*
X012542Y000405D01*
X012587Y000360D01*
X012318Y000360D01*
X012364Y000405D01*
X012438Y000584D01*
X012438Y000776D01*
X012364Y000955D01*
X012227Y001091D01*
X012049Y001165D01*
X011856Y001165D01*
X011678Y001091D01*
X011542Y000955D01*
X011468Y000776D01*
X011468Y000584D01*
X011542Y000405D01*
X011587Y000360D01*
X011318Y000360D01*
X011364Y000405D01*
X011438Y000584D01*
X011438Y000776D01*
X011364Y000955D01*
X011227Y001091D01*
X011049Y001165D01*
X010856Y001165D01*
X010678Y001091D01*
X010542Y000955D01*
X010468Y000776D01*
X010468Y000584D01*
X010542Y000405D01*
X010587Y000360D01*
X010318Y000360D01*
X010364Y000405D01*
X010438Y000584D01*
X010438Y000776D01*
X010364Y000955D01*
X010227Y001091D01*
X010170Y001115D01*
X010253Y001197D01*
X010253Y003097D01*
X010323Y003126D01*
X010407Y003210D01*
X010453Y003320D01*
X010453Y003440D01*
X010407Y003550D01*
X010323Y003634D01*
X010213Y003680D01*
X010093Y003680D01*
X009983Y003634D01*
X009899Y003550D01*
X009853Y003440D01*
X009853Y003263D01*
X009813Y003280D01*
X009693Y003280D01*
X009653Y003263D01*
X009653Y003297D01*
X009723Y003326D01*
X009807Y003410D01*
X009853Y003520D01*
X009853Y003640D01*
X009807Y003750D01*
X009723Y003834D01*
X009658Y003861D01*
X009707Y003910D01*
X009753Y004020D01*
X009753Y004140D01*
X009707Y004250D01*
X009623Y004334D01*
X009513Y004380D01*
X009393Y004380D01*
X009283Y004334D01*
X009199Y004250D01*
X009153Y004140D01*
X009153Y004063D01*
X009070Y003980D01*
X008953Y003863D01*
X008953Y001980D01*
X006770Y001980D01*
X006570Y001780D01*
X005870Y001780D01*
X005670Y001580D01*
X004870Y001580D01*
X004670Y001380D01*
X004070Y001380D01*
X003870Y001180D01*
X003854Y001164D01*
X003678Y001091D01*
X003542Y000955D01*
X003468Y000776D01*
X003468Y000584D01*
X003542Y000405D01*
X003587Y000360D01*
X003318Y000360D01*
X003364Y000405D01*
X003438Y000584D01*
X003438Y000776D01*
X003364Y000955D01*
X003227Y001091D01*
X003049Y001165D01*
X002856Y001165D01*
X002678Y001091D01*
X002542Y000955D01*
X002468Y000776D01*
X002468Y000584D01*
X002542Y000405D01*
X002587Y000360D01*
X002344Y000360D01*
X002385Y000415D01*
X002421Y000486D01*
X002445Y000562D01*
X002458Y000640D01*
X002458Y000652D01*
X001981Y000652D01*
X001981Y000708D01*
X002458Y000708D01*
X002458Y000720D01*
X002445Y000798D01*
X002421Y000874D01*
X002385Y000945D01*
X002338Y001009D01*
X002282Y001065D01*
X002217Y001112D01*
X002147Y001148D01*
X002071Y001172D01*
X001993Y001185D01*
X001981Y001185D01*
X001981Y000708D01*
X001925Y000708D01*
X001925Y001185D01*
X001913Y001185D01*
X001835Y001172D01*
X001759Y001148D01*
X001688Y001112D01*
X001624Y001065D01*
X001568Y001009D01*
X001521Y000945D01*
X001485Y000874D01*
X001460Y000798D01*
X001448Y000720D01*
X001448Y000708D01*
X001925Y000708D01*
X001925Y000652D01*
X001448Y000652D01*
X001448Y000640D01*
X001460Y000562D01*
X001485Y000486D01*
X001521Y000415D01*
X001561Y000360D01*
X001318Y000360D01*
X001364Y000405D01*
X001438Y000584D01*
X001438Y000776D01*
X001364Y000955D01*
X001227Y001091D01*
X001049Y001165D01*
X000856Y001165D01*
X000678Y001091D01*
X000633Y001046D01*
X000633Y009289D01*
X000688Y009248D01*
X000759Y009212D01*
X000835Y009188D01*
X000913Y009175D01*
X000925Y009175D01*
X000925Y009652D01*
X000981Y009652D01*
X000981Y009708D01*
X001458Y009708D01*
X001458Y009652D02*
X000981Y009652D01*
X000981Y009175D01*
X000993Y009175D01*
X001071Y009188D01*
X001147Y009212D01*
X001217Y009248D01*
X001282Y009295D01*
X001338Y009351D01*
X001385Y009415D01*
X001421Y009486D01*
X001445Y009562D01*
X001458Y009640D01*
X001458Y009652D01*
X001435Y009532D02*
X001490Y009532D01*
X001574Y009373D02*
X001354Y009373D01*
X001151Y009215D02*
X001733Y009215D01*
X001866Y009056D02*
X000633Y009056D01*
X000633Y009215D02*
X000754Y009215D01*
X000925Y009215D02*
X000981Y009215D01*
X000981Y009373D02*
X000925Y009373D01*
X000925Y009532D02*
X000981Y009532D01*
X001429Y009849D02*
X001498Y009849D01*
X000633Y008898D02*
X003724Y008898D01*
X004483Y008739D02*
X000633Y008739D01*
X000633Y008581D02*
X004641Y008581D01*
X005053Y008163D02*
X005170Y008280D01*
X005229Y008280D01*
X005283Y008334D01*
X005393Y008380D01*
X005513Y008380D01*
X005623Y008334D01*
X005707Y008250D01*
X005753Y008140D01*
X005753Y008020D01*
X005707Y007910D01*
X005623Y007826D01*
X005513Y007780D01*
X005393Y007780D01*
X005283Y007826D01*
X005282Y007826D01*
X005253Y007797D01*
X005253Y006504D01*
X005283Y006534D01*
X005393Y006580D01*
X005513Y006580D01*
X005623Y006534D01*
X005707Y006450D01*
X005753Y006340D01*
X005753Y006220D01*
X005707Y006110D01*
X005653Y006056D01*
X005653Y004963D01*
X005736Y004880D01*
X006729Y004880D01*
X006699Y004910D01*
X006653Y005020D01*
X006653Y005140D01*
X006699Y005250D01*
X006783Y005334D01*
X006893Y005380D01*
X006953Y005380D01*
X006953Y005440D01*
X006999Y005550D01*
X007083Y005634D01*
X007193Y005680D01*
X007313Y005680D01*
X007423Y005634D01*
X007477Y005580D01*
X009870Y005580D01*
X009953Y005663D01*
X009953Y006556D01*
X009899Y006610D01*
X009853Y006720D01*
X009853Y006840D01*
X009899Y006950D01*
X009983Y007034D01*
X010093Y007080D01*
X010213Y007080D01*
X010323Y007034D01*
X010407Y006950D01*
X010453Y006840D01*
X010453Y006720D01*
X010407Y006610D01*
X010353Y006556D01*
X010353Y005497D01*
X010236Y005380D01*
X010136Y005280D01*
X010470Y005280D01*
X010553Y005363D01*
X010553Y005440D01*
X010599Y005550D01*
X010683Y005634D01*
X010793Y005680D01*
X010913Y005680D01*
X011023Y005634D01*
X011107Y005550D01*
X011153Y005440D01*
X011153Y005320D01*
X011107Y005210D01*
X011023Y005126D01*
X010913Y005080D01*
X010836Y005080D01*
X010636Y004880D01*
X007177Y004880D01*
X007177Y004880D01*
X013429Y004880D01*
X013483Y004934D01*
X013593Y004980D01*
X013713Y004980D01*
X013823Y004934D01*
X013907Y004850D01*
X013953Y004740D01*
X013953Y004620D01*
X013907Y004510D01*
X013823Y004426D01*
X013713Y004380D01*
X013593Y004380D01*
X013483Y004426D01*
X013429Y004480D01*
X009136Y004480D01*
X009153Y004440D01*
X009153Y004320D01*
X009107Y004210D01*
X009023Y004126D01*
X008913Y004080D01*
X008793Y004080D01*
X008683Y004126D01*
X008629Y004180D01*
X005370Y004180D01*
X004970Y004580D01*
X004853Y004697D01*
X004853Y007963D01*
X005053Y008163D01*
X004995Y008105D02*
X000633Y008105D01*
X000633Y008264D02*
X005154Y008264D01*
X004853Y007947D02*
X000633Y007947D01*
X000633Y007788D02*
X004853Y007788D01*
X004853Y007630D02*
X000633Y007630D01*
X000633Y007471D02*
X004853Y007471D01*
X004853Y007313D02*
X000633Y007313D01*
X000633Y007154D02*
X004853Y007154D01*
X004853Y006996D02*
X000633Y006996D01*
X000633Y006837D02*
X004853Y006837D01*
X004853Y006679D02*
X000633Y006679D01*
X000633Y006520D02*
X004853Y006520D01*
X004853Y006362D02*
X002625Y006362D01*
X002655Y006349D02*
X002524Y006403D01*
X002382Y006403D01*
X002251Y006349D01*
X002150Y006248D01*
X002096Y006117D01*
X002096Y005975D01*
X002150Y005844D01*
X002251Y005743D01*
X002382Y005689D01*
X002524Y005689D01*
X002655Y005743D01*
X002756Y005844D01*
X002810Y005975D01*
X002810Y006117D01*
X002756Y006248D01*
X002655Y006349D01*
X002774Y006203D02*
X004853Y006203D01*
X004853Y006045D02*
X002810Y006045D01*
X002773Y005886D02*
X004853Y005886D01*
X004853Y005728D02*
X002617Y005728D01*
X002289Y005728D02*
X000633Y005728D01*
X000633Y005886D02*
X002133Y005886D01*
X002096Y006045D02*
X000633Y006045D01*
X000633Y006203D02*
X002131Y006203D01*
X002281Y006362D02*
X000633Y006362D01*
X000633Y005569D02*
X004853Y005569D01*
X004853Y005411D02*
X000633Y005411D01*
X000633Y005252D02*
X004853Y005252D01*
X004853Y005094D02*
X000633Y005094D01*
X000633Y004935D02*
X004853Y004935D01*
X004853Y004777D02*
X000633Y004777D01*
X000633Y004618D02*
X002254Y004618D01*
X002251Y004617D02*
X002150Y004516D01*
X002096Y004385D01*
X002096Y004243D01*
X002150Y004112D01*
X002251Y004011D01*
X002382Y003957D01*
X002524Y003957D01*
X002655Y004011D01*
X002756Y004112D01*
X002810Y004243D01*
X002810Y004385D01*
X002756Y004516D01*
X002655Y004617D01*
X002524Y004671D01*
X002382Y004671D01*
X002251Y004617D01*
X002127Y004460D02*
X000633Y004460D01*
X000633Y004301D02*
X002096Y004301D01*
X002137Y004143D02*
X000633Y004143D01*
X000633Y003984D02*
X002316Y003984D01*
X002590Y003984D02*
X009074Y003984D01*
X009040Y004143D02*
X009154Y004143D01*
X009145Y004301D02*
X009250Y004301D01*
X009145Y004460D02*
X013449Y004460D01*
X013857Y004460D02*
X015049Y004460D01*
X015074Y004618D02*
X015208Y004618D01*
X015232Y004777D02*
X015253Y004777D01*
X015653Y004777D02*
X017253Y004777D01*
X017253Y004935D02*
X015653Y004935D01*
X015653Y005094D02*
X017253Y005094D01*
X017253Y005252D02*
X015653Y005252D01*
X015653Y005411D02*
X017253Y005411D01*
X017359Y005569D02*
X015653Y005569D01*
X015653Y005728D02*
X017468Y005728D01*
X017513Y005886D02*
X015653Y005886D01*
X015653Y006045D02*
X017632Y006045D01*
X017838Y006203D02*
X015659Y006203D01*
X015817Y006362D02*
X017586Y006362D01*
X018068Y006203D02*
X018268Y006203D01*
X018268Y005309D02*
X018268Y005075D01*
X018217Y005112D01*
X018147Y005148D01*
X018071Y005172D01*
X017993Y005185D01*
X017981Y005185D01*
X017981Y004708D01*
X017925Y004708D01*
X017925Y005185D01*
X017913Y005185D01*
X017835Y005172D01*
X017759Y005148D01*
X017688Y005112D01*
X017653Y005086D01*
X017653Y005294D01*
X017678Y005269D01*
X017856Y005195D01*
X018049Y005195D01*
X018227Y005269D01*
X018268Y005309D01*
X018268Y005252D02*
X018186Y005252D01*
X018243Y005094D02*
X018268Y005094D01*
X017981Y005094D02*
X017925Y005094D01*
X017719Y005252D02*
X017653Y005252D01*
X017653Y005094D02*
X017663Y005094D01*
X017925Y004935D02*
X017981Y004935D01*
X017981Y004777D02*
X017925Y004777D01*
X017925Y004652D02*
X017981Y004652D01*
X017981Y004175D01*
X017993Y004175D01*
X018071Y004188D01*
X018147Y004212D01*
X018217Y004248D01*
X018268Y004285D01*
X018268Y004051D01*
X018227Y004091D01*
X018049Y004165D01*
X017856Y004165D01*
X017678Y004091D01*
X017551Y003964D01*
X017536Y003980D01*
X017436Y004080D01*
X017453Y004097D01*
X017639Y004284D01*
X017688Y004248D01*
X017759Y004212D01*
X017835Y004188D01*
X017913Y004175D01*
X017925Y004175D01*
X017925Y004652D01*
X017925Y004618D02*
X017981Y004618D01*
X017981Y004460D02*
X017925Y004460D01*
X017925Y004301D02*
X017981Y004301D01*
X018103Y004143D02*
X018268Y004143D01*
X017803Y004143D02*
X017498Y004143D01*
X017532Y003984D02*
X017571Y003984D01*
X017249Y004460D02*
X015615Y004460D01*
X015653Y004618D02*
X017253Y004618D01*
X015591Y004301D02*
X015457Y004301D01*
X015432Y004143D02*
X015298Y004143D01*
X015274Y003984D02*
X015140Y003984D01*
X015115Y003826D02*
X014981Y003826D01*
X014957Y003667D02*
X012353Y003667D01*
X012317Y003826D02*
X013192Y003826D01*
X013153Y003984D02*
X009738Y003984D01*
X009752Y004143D02*
X013195Y004143D01*
X013952Y004618D02*
X014195Y004618D01*
X014153Y004777D02*
X013938Y004777D01*
X013821Y004935D02*
X014192Y004935D01*
X014453Y005094D02*
X010945Y005094D01*
X011125Y005252D02*
X014501Y005252D01*
X014553Y005411D02*
X011153Y005411D01*
X011088Y005569D02*
X011540Y005569D01*
X011453Y005728D02*
X011225Y005728D01*
X011339Y005886D02*
X011364Y005886D01*
X011370Y005880D02*
X011370Y005880D01*
X011736Y006080D02*
X011813Y006080D01*
X011736Y006080D01*
X011736Y006080D01*
X011898Y006045D02*
X014553Y006045D01*
X014553Y006203D02*
X012268Y006203D01*
X012038Y006203D02*
X012000Y006203D01*
X012428Y006362D02*
X014553Y006362D01*
X014710Y006520D02*
X012911Y006520D01*
X012953Y006679D02*
X014869Y006679D01*
X015027Y006837D02*
X012913Y006837D01*
X012793Y006996D02*
X015186Y006996D01*
X015151Y007154D02*
X015344Y007154D01*
X015250Y007313D02*
X015503Y007313D01*
X015661Y007471D02*
X015240Y007471D01*
X015227Y007630D02*
X015490Y007630D01*
X015453Y007788D02*
X015339Y007788D01*
X014553Y007788D02*
X012828Y007788D01*
X012753Y007947D02*
X014553Y007947D01*
X014553Y008105D02*
X012753Y008105D01*
X012753Y008264D02*
X014553Y008264D01*
X014553Y008422D02*
X012753Y008422D01*
X012753Y008581D02*
X013869Y008581D01*
X013711Y008739D02*
X012753Y008739D01*
X012753Y008898D02*
X012852Y008898D01*
X013128Y007630D02*
X014553Y007630D01*
X014579Y007471D02*
X013240Y007471D01*
X013250Y007313D02*
X014656Y007313D01*
X014755Y007154D02*
X013151Y007154D01*
X010853Y007154D02*
X008273Y007154D01*
X008273Y007313D02*
X009915Y007313D01*
X010191Y007313D02*
X010853Y007313D01*
X010853Y007471D02*
X010332Y007471D01*
X010353Y007630D02*
X010820Y007630D01*
X010362Y007788D02*
X010269Y007788D01*
X010203Y007947D02*
X009950Y007947D01*
X008551Y007471D02*
X008273Y007471D01*
X008273Y007630D02*
X008392Y007630D01*
X008533Y007489D02*
X008533Y007489D01*
X007833Y007471D02*
X005253Y007471D01*
X005253Y007630D02*
X007833Y007630D01*
X007833Y007788D02*
X005532Y007788D01*
X005374Y007788D02*
X005253Y007788D01*
X005722Y007947D02*
X007775Y007947D01*
X007317Y008105D02*
X005753Y008105D01*
X005694Y008264D02*
X006358Y008264D01*
X006200Y008422D02*
X000633Y008422D01*
X005253Y007313D02*
X007833Y007313D01*
X007833Y007154D02*
X005253Y007154D01*
X005253Y006996D02*
X007833Y006996D01*
X007833Y006837D02*
X005253Y006837D01*
X005253Y006679D02*
X007833Y006679D01*
X007833Y006520D02*
X005637Y006520D01*
X005744Y006362D02*
X007810Y006362D01*
X007753Y006203D02*
X005746Y006203D01*
X005653Y006045D02*
X007784Y006045D01*
X007979Y005886D02*
X005653Y005886D01*
X005653Y005728D02*
X009953Y005728D01*
X009953Y005886D02*
X008127Y005886D01*
X008321Y006045D02*
X009953Y006045D01*
X009953Y006203D02*
X008353Y006203D01*
X008296Y006362D02*
X009953Y006362D01*
X009953Y006520D02*
X008273Y006520D01*
X008273Y006679D02*
X009870Y006679D01*
X009853Y006837D02*
X008273Y006837D01*
X008273Y006996D02*
X009944Y006996D01*
X010362Y006996D02*
X010853Y006996D01*
X010853Y006837D02*
X010453Y006837D01*
X010436Y006679D02*
X010853Y006679D01*
X010853Y006520D02*
X010353Y006520D01*
X010353Y006362D02*
X010853Y006362D01*
X010852Y006203D02*
X010353Y006203D01*
X010353Y006045D02*
X010755Y006045D01*
X010767Y005886D02*
X010353Y005886D01*
X010353Y005728D02*
X010881Y005728D01*
X010618Y005569D02*
X010353Y005569D01*
X010266Y005411D02*
X010553Y005411D01*
X010691Y004935D02*
X013485Y004935D01*
X014553Y005569D02*
X011966Y005569D01*
X012053Y005728D02*
X014553Y005728D01*
X014553Y005886D02*
X012034Y005886D01*
X009656Y004301D02*
X014891Y004301D01*
X014798Y003509D02*
X012306Y003509D01*
X012273Y003350D02*
X014721Y003350D01*
X014574Y003192D02*
X012273Y003192D01*
X012273Y003033D02*
X014553Y003033D01*
X014634Y002875D02*
X012273Y002875D01*
X012273Y002716D02*
X014653Y002716D01*
X014653Y002558D02*
X012273Y002558D01*
X012273Y002399D02*
X014653Y002399D01*
X014653Y002241D02*
X012273Y002241D01*
X012273Y002082D02*
X014653Y002082D01*
X014653Y001924D02*
X012273Y001924D01*
X012279Y001765D02*
X014357Y001765D01*
X014549Y001765D02*
X014653Y001765D01*
X014653Y001131D02*
X014131Y001131D01*
X014346Y000973D02*
X014560Y000973D01*
X014484Y000814D02*
X014422Y000814D01*
X014438Y000656D02*
X014468Y000656D01*
X014504Y000497D02*
X014402Y000497D01*
X013504Y000497D02*
X013402Y000497D01*
X013438Y000656D02*
X013468Y000656D01*
X013484Y000814D02*
X013422Y000814D01*
X013346Y000973D02*
X013560Y000973D01*
X013775Y001131D02*
X013131Y001131D01*
X012775Y001131D02*
X012131Y001131D01*
X012346Y000973D02*
X012560Y000973D01*
X012484Y000814D02*
X012422Y000814D01*
X012438Y000656D02*
X012468Y000656D01*
X012504Y000497D02*
X012402Y000497D01*
X011504Y000497D02*
X011402Y000497D01*
X011438Y000656D02*
X011468Y000656D01*
X011484Y000814D02*
X011422Y000814D01*
X011346Y000973D02*
X011560Y000973D01*
X011775Y001131D02*
X011131Y001131D01*
X010775Y001131D02*
X010187Y001131D01*
X010346Y000973D02*
X010560Y000973D01*
X010484Y000814D02*
X010422Y000814D01*
X010438Y000656D02*
X010468Y000656D01*
X010504Y000497D02*
X010402Y000497D01*
X010253Y001290D02*
X012132Y001290D01*
X011974Y001448D02*
X010253Y001448D01*
X010253Y001607D02*
X011833Y001607D01*
X011833Y001765D02*
X010253Y001765D01*
X010253Y001924D02*
X011833Y001924D01*
X011833Y002082D02*
X010253Y002082D01*
X010253Y002241D02*
X011833Y002241D01*
X011833Y002399D02*
X010253Y002399D01*
X010253Y002558D02*
X011833Y002558D01*
X011833Y002716D02*
X010253Y002716D01*
X010253Y002875D02*
X011833Y002875D01*
X011833Y003033D02*
X010253Y003033D01*
X010389Y003192D02*
X011833Y003192D01*
X011833Y003350D02*
X010453Y003350D01*
X010424Y003509D02*
X011800Y003509D01*
X011753Y003667D02*
X010244Y003667D01*
X010062Y003667D02*
X009842Y003667D01*
X009732Y003826D02*
X011788Y003826D01*
X009881Y003509D02*
X009848Y003509D01*
X009853Y003350D02*
X009747Y003350D01*
X008953Y003350D02*
X000633Y003350D01*
X000633Y003509D02*
X008953Y003509D01*
X008953Y003667D02*
X000633Y003667D01*
X000633Y003826D02*
X008953Y003826D01*
X008666Y004143D02*
X002768Y004143D01*
X002810Y004301D02*
X005249Y004301D01*
X005090Y004460D02*
X002779Y004460D01*
X002652Y004618D02*
X004932Y004618D01*
X005681Y004935D02*
X006688Y004935D01*
X006653Y005094D02*
X005653Y005094D01*
X005653Y005252D02*
X006701Y005252D01*
X006953Y005411D02*
X005653Y005411D01*
X005653Y005569D02*
X007018Y005569D01*
X005269Y006520D02*
X005253Y006520D01*
X008953Y003192D02*
X000633Y003192D01*
X000633Y003033D02*
X008953Y003033D01*
X008953Y002875D02*
X000633Y002875D01*
X000633Y002716D02*
X008953Y002716D01*
X008953Y002558D02*
X000633Y002558D01*
X000633Y002399D02*
X008953Y002399D01*
X008953Y002241D02*
X000633Y002241D01*
X000633Y002082D02*
X008953Y002082D01*
X006713Y001924D02*
X000633Y001924D01*
X000633Y001765D02*
X005855Y001765D01*
X005696Y001607D02*
X000633Y001607D01*
X000633Y001448D02*
X004738Y001448D01*
X003979Y001290D02*
X000633Y001290D01*
X000633Y001131D02*
X000775Y001131D01*
X001131Y001131D02*
X001726Y001131D01*
X001925Y001131D02*
X001981Y001131D01*
X001981Y000973D02*
X001925Y000973D01*
X002180Y001131D02*
X002775Y001131D01*
X002560Y000973D02*
X002364Y000973D01*
X002440Y000814D02*
X002484Y000814D01*
X002468Y000656D02*
X001981Y000656D01*
X001925Y000656D02*
X001438Y000656D01*
X001422Y000814D02*
X001466Y000814D01*
X001541Y000973D02*
X001346Y000973D01*
X001925Y000814D02*
X001981Y000814D01*
X002424Y000497D02*
X002504Y000497D01*
X003402Y000497D02*
X003504Y000497D01*
X003468Y000656D02*
X003438Y000656D01*
X003422Y000814D02*
X003484Y000814D01*
X003560Y000973D02*
X003346Y000973D01*
X003131Y001131D02*
X003775Y001131D01*
X001482Y000497D02*
X001402Y000497D01*
D12*
X001953Y000680D02*
X002453Y002880D01*
X002553Y002980D01*
X004053Y004480D01*
X004753Y004480D01*
X005153Y004080D01*
X009053Y004080D01*
X009453Y004480D01*
X009553Y004480D01*
X009753Y004280D01*
X011653Y004280D01*
X010553Y005080D02*
X010853Y005380D01*
X010953Y005680D02*
X011153Y005580D01*
X011553Y005180D01*
X012253Y005180D01*
X013953Y006880D01*
X013953Y007280D01*
X012853Y008380D01*
X012353Y008580D02*
X012353Y007680D01*
X012553Y007480D01*
X012553Y007180D01*
X012153Y007180D02*
X012153Y008380D01*
X011953Y008580D01*
X011653Y008580D01*
X011453Y008780D01*
X010853Y008780D01*
X010653Y008980D01*
X010053Y008980D01*
X009853Y009180D01*
X009153Y009180D01*
X008953Y009380D01*
X008953Y009680D01*
X008853Y009180D02*
X008153Y009180D01*
X007953Y009380D01*
X007953Y009680D01*
X007853Y009180D02*
X007153Y009180D01*
X006953Y009380D01*
X006953Y009680D01*
X006753Y009280D02*
X007053Y008980D01*
X007753Y008980D01*
X007953Y008780D01*
X008653Y008780D01*
X008853Y008580D01*
X009553Y008580D01*
X009753Y008380D01*
X010353Y008380D01*
X010553Y008180D01*
X011153Y008180D01*
X011453Y007880D01*
X011453Y006080D01*
X011753Y005780D01*
X011053Y005980D02*
X011053Y007680D01*
X010753Y007980D01*
X010453Y007980D01*
X010253Y008180D01*
X009653Y008180D01*
X009453Y008380D01*
X008753Y008380D01*
X008553Y008580D01*
X007853Y008580D01*
X007653Y008780D01*
X006953Y008780D01*
X006653Y009080D01*
X005953Y009080D01*
X005853Y009180D01*
X005153Y009180D01*
X004953Y009380D01*
X004953Y009680D01*
X004753Y009180D02*
X004153Y009180D01*
X003953Y009380D01*
X003953Y009680D01*
X004753Y009180D02*
X004953Y008980D01*
X005653Y008980D01*
X005753Y008880D01*
X006453Y008880D01*
X006753Y008580D01*
X007553Y008580D01*
X007753Y008380D01*
X008453Y008380D01*
X008653Y008180D01*
X009353Y008180D01*
X009653Y007880D01*
X009853Y008580D02*
X009653Y008780D01*
X008953Y008780D01*
X008753Y008980D01*
X008053Y008980D01*
X007853Y009180D01*
X008853Y009180D02*
X009053Y008980D01*
X009753Y008980D01*
X009953Y008780D01*
X010553Y008780D01*
X010753Y008580D01*
X011353Y008580D01*
X011553Y008380D01*
X011753Y008380D01*
X011953Y008180D01*
X011953Y006680D01*
X012153Y006480D01*
X011753Y006380D02*
X011753Y007880D01*
X011253Y008380D01*
X010653Y008380D01*
X010453Y008580D01*
X009853Y008580D01*
X010153Y009180D02*
X010753Y009180D01*
X010953Y008980D01*
X011553Y008980D01*
X011753Y008780D01*
X012153Y008780D01*
X012353Y008580D01*
X012553Y008880D02*
X012453Y008980D01*
X011853Y008980D01*
X011653Y009180D01*
X011153Y009180D01*
X010953Y009380D01*
X010953Y009680D01*
X010153Y009180D02*
X009953Y009380D01*
X009953Y009680D01*
X011953Y009680D02*
X011953Y009280D01*
X012053Y009180D01*
X012853Y009180D01*
X013053Y008980D01*
X013753Y008980D01*
X013953Y008780D01*
X014653Y008780D01*
X014753Y008680D01*
X014753Y007580D01*
X014953Y007380D01*
X015753Y007780D02*
X015753Y009080D01*
X015653Y009180D01*
X015153Y009180D01*
X014953Y009380D01*
X014953Y009680D01*
X014853Y009180D02*
X014153Y009180D01*
X013953Y009380D01*
X013953Y009680D01*
X013853Y009180D02*
X013153Y009180D01*
X012953Y009380D01*
X012953Y009680D01*
X013853Y009180D02*
X014053Y008980D01*
X014753Y008980D01*
X015053Y008680D01*
X015053Y007880D01*
X015353Y008180D02*
X015353Y008680D01*
X014853Y009180D01*
X015953Y009680D02*
X016153Y009480D01*
X016153Y007680D01*
X014753Y006280D01*
X014753Y005080D01*
X014953Y004780D02*
X015153Y004980D01*
X015153Y006380D01*
X016453Y007680D01*
X016453Y008980D01*
X016653Y009180D01*
X016653Y009380D01*
X016953Y009680D01*
X012953Y007380D02*
X012553Y007780D01*
X012553Y008880D01*
X012153Y007180D02*
X012653Y006680D01*
X010953Y005680D02*
X010653Y005880D01*
X010653Y006880D01*
X010353Y007180D01*
X009053Y007180D01*
X010153Y006780D02*
X010153Y005580D01*
X009953Y005380D01*
X007253Y005380D01*
X006953Y005080D02*
X010553Y005080D01*
X008853Y004380D02*
X005453Y004380D01*
X005053Y004780D01*
X005053Y007880D01*
X005253Y008080D01*
X005453Y008080D01*
X006053Y009280D02*
X006753Y009280D01*
X006053Y009280D02*
X005953Y009380D01*
X005953Y009680D01*
X005453Y006280D02*
X005453Y004880D01*
X005653Y004680D01*
X013653Y004680D01*
X014453Y004780D02*
X014953Y004780D01*
X015453Y004580D02*
X014853Y003980D01*
X013453Y003980D01*
X014953Y003380D02*
X014953Y003180D01*
X014853Y003080D01*
X014853Y000780D01*
X014953Y000680D01*
X017853Y002780D02*
X017953Y002680D01*
X017853Y002780D02*
X017553Y002780D01*
X017453Y002880D01*
X017453Y003780D01*
X017253Y003980D01*
X016053Y003980D01*
X015553Y003480D01*
X015553Y003380D01*
X014953Y003380D02*
X015753Y004180D01*
X017253Y004180D01*
X017453Y004380D01*
X017453Y005380D01*
X017753Y005680D01*
X017953Y005680D01*
X017953Y006680D02*
X015853Y006680D01*
X015453Y006280D01*
X015453Y004580D01*
X010153Y003380D02*
X010053Y003280D01*
X010053Y001280D01*
X009953Y001180D01*
X007153Y001180D01*
X006953Y000980D01*
X006953Y000680D01*
X006853Y001180D02*
X006153Y001180D01*
X005953Y000980D01*
X005953Y000680D01*
X005853Y001180D02*
X005153Y001180D01*
X004953Y000980D01*
X004953Y000680D01*
X004753Y001180D02*
X004153Y001180D01*
X003953Y000980D01*
X003953Y000680D01*
X004753Y001180D02*
X004953Y001380D01*
X005753Y001380D01*
X005953Y001580D01*
X006653Y001580D01*
X006853Y001780D01*
X009053Y001780D01*
X009153Y001880D01*
X009153Y003780D01*
X009453Y004080D01*
X009553Y003580D02*
X009453Y003480D01*
X009453Y001680D01*
X009353Y001580D01*
X006953Y001580D01*
X006753Y001380D01*
X006053Y001380D01*
X005853Y001180D01*
X006853Y001180D02*
X007053Y001380D01*
X009553Y001380D01*
X009753Y001580D01*
X009753Y002980D01*
D13*
X009753Y002980D03*
X010153Y003380D03*
X009553Y003580D03*
X009453Y004080D03*
X008853Y004380D03*
X007253Y005380D03*
X006953Y005080D03*
X008053Y006180D03*
X009053Y007180D03*
X010053Y007580D03*
X009653Y007880D03*
X010153Y006780D03*
X011053Y005980D03*
X011753Y005780D03*
X010853Y005380D03*
X011753Y006380D03*
X012153Y006480D03*
X012653Y006680D03*
X012553Y007180D03*
X012953Y007380D03*
X012853Y008380D03*
X015053Y007880D03*
X015353Y008180D03*
X015753Y007780D03*
X014953Y007380D03*
X014753Y005080D03*
X014453Y004780D03*
X013653Y004680D03*
X013453Y003980D03*
X012053Y003680D03*
X011653Y004280D03*
X014853Y003080D03*
X015353Y002980D03*
X015553Y003380D03*
X016953Y003680D03*
X014453Y001480D03*
X005453Y006280D03*
X005453Y008080D03*
X002553Y002980D03*
D14*
X008053Y006180D02*
X008053Y007980D01*
X007853Y008180D01*
X007553Y008180D01*
X007353Y008380D01*
X006553Y008380D01*
X006253Y008680D01*
X004853Y008680D01*
X004553Y008980D01*
X003953Y008980D01*
X003753Y009180D01*
X002053Y009180D01*
X001953Y009280D01*
X001953Y009680D01*
X007853Y008180D02*
X008153Y008180D01*
X008753Y007580D01*
X010053Y007580D01*
X012053Y003680D02*
X012053Y001680D01*
X012253Y001480D01*
X014453Y001480D01*
X015353Y002980D02*
X016753Y002980D01*
X016953Y003180D01*
X016953Y003680D01*
M02*
