%
M48
M72
T01C0.0120
T02C0.0354
T03C0.0433
%
T01
X2553Y2980
X6953Y5080
X7253Y5380
X5853Y6280
X8353Y6980
X10053Y7680
X9653Y7980
X10153Y6780
X11053Y5980
X11753Y5780
X10853Y5380
X11753Y6380
X12153Y6480
X12653Y6680
X12553Y7180
X12953Y7380
X12853Y8280
X14953Y7380
X15753Y7780
X15353Y8180
X15053Y7880
X17853Y8180
X18753Y8580
X14753Y5080
X14453Y4780
X13953Y4380
X13553Y3880
X12053Y3680
X11853Y4280
X10153Y3380
X9553Y3580
X9453Y4080
X8853Y4380
X9753Y2980
X15153Y2480
X15253Y3480
X5453Y8080
T02
X2453Y6046
X2453Y4314
T03
X1453Y680
X2453Y680
X3453Y680
X4453Y680
X5453Y680
X6453Y680
X7453Y680
X8453Y680
X9453Y680
X10453Y680
X11453Y680
X12453Y680
X13453Y680
X14453Y680
X15453Y680
X16453Y680
X17453Y680
X18453Y680
X18953Y2680
X18953Y3680
X18953Y4680
X18953Y5680
X18953Y6680
X18953Y7680
X18453Y9680
X17453Y9680
X16453Y9680
X15453Y9680
X14453Y9680
X13453Y9680
X12453Y9680
X11453Y9680
X10453Y9680
X9453Y9680
X8453Y9680
X7453Y9680
X6453Y9680
X5453Y9680
X4453Y9680
X3453Y9680
X2453Y9680
X1453Y9680
M30
