G75*
G70*
%OFA0B0*%
%FSLAX24Y24*%
%IPPOS*%
%LPD*%
%AMOC8*
5,1,8,0,0,1.08239X$1,22.5*
%
%ADD10C,0.0000*%
%ADD11C,0.0650*%
%ADD12R,0.0984X0.0197*%
%ADD13R,0.0984X0.0787*%
%ADD14R,0.0551X0.1102*%
%ADD15R,0.1575X0.0591*%
%ADD16R,0.1575X0.0669*%
%ADD17R,0.0846X0.0394*%
%ADD18R,0.0846X0.1280*%
%ADD19R,0.0630X0.0197*%
%ADD20R,0.0394X0.0394*%
%ADD21R,0.0472X0.0472*%
%ADD22R,0.0689X0.0492*%
%ADD23R,0.0492X0.0689*%
%ADD24C,0.0160*%
%ADD25C,0.0120*%
%ADD26C,0.0280*%
%ADD27C,0.0080*%
D10*
X000453Y000180D02*
X000453Y010176D01*
X019448Y010176D01*
X019448Y000180D01*
X000453Y000180D01*
X002276Y004314D02*
X002278Y004340D01*
X002284Y004366D01*
X002294Y004391D01*
X002307Y004414D01*
X002323Y004434D01*
X002343Y004452D01*
X002365Y004467D01*
X002388Y004479D01*
X002414Y004487D01*
X002440Y004491D01*
X002466Y004491D01*
X002492Y004487D01*
X002518Y004479D01*
X002542Y004467D01*
X002563Y004452D01*
X002583Y004434D01*
X002599Y004414D01*
X002612Y004391D01*
X002622Y004366D01*
X002628Y004340D01*
X002630Y004314D01*
X002628Y004288D01*
X002622Y004262D01*
X002612Y004237D01*
X002599Y004214D01*
X002583Y004194D01*
X002563Y004176D01*
X002541Y004161D01*
X002518Y004149D01*
X002492Y004141D01*
X002466Y004137D01*
X002440Y004137D01*
X002414Y004141D01*
X002388Y004149D01*
X002364Y004161D01*
X002343Y004176D01*
X002323Y004194D01*
X002307Y004214D01*
X002294Y004237D01*
X002284Y004262D01*
X002278Y004288D01*
X002276Y004314D01*
X002276Y006046D02*
X002278Y006072D01*
X002284Y006098D01*
X002294Y006123D01*
X002307Y006146D01*
X002323Y006166D01*
X002343Y006184D01*
X002365Y006199D01*
X002388Y006211D01*
X002414Y006219D01*
X002440Y006223D01*
X002466Y006223D01*
X002492Y006219D01*
X002518Y006211D01*
X002542Y006199D01*
X002563Y006184D01*
X002583Y006166D01*
X002599Y006146D01*
X002612Y006123D01*
X002622Y006098D01*
X002628Y006072D01*
X002630Y006046D01*
X002628Y006020D01*
X002622Y005994D01*
X002612Y005969D01*
X002599Y005946D01*
X002583Y005926D01*
X002563Y005908D01*
X002541Y005893D01*
X002518Y005881D01*
X002492Y005873D01*
X002466Y005869D01*
X002440Y005869D01*
X002414Y005873D01*
X002388Y005881D01*
X002364Y005893D01*
X002343Y005908D01*
X002323Y005926D01*
X002307Y005946D01*
X002294Y005969D01*
X002284Y005994D01*
X002278Y006020D01*
X002276Y006046D01*
D11*
X002453Y009680D03*
X003453Y009680D03*
X004453Y009680D03*
X005453Y009680D03*
X006453Y009680D03*
X007453Y009680D03*
X008453Y009680D03*
X009453Y009680D03*
X010453Y009680D03*
X011453Y009680D03*
X012453Y009680D03*
X013453Y009680D03*
X014453Y009680D03*
X015453Y009680D03*
X016453Y009680D03*
X017453Y009680D03*
X018453Y009680D03*
X018953Y007680D03*
X018953Y006680D03*
X018953Y005680D03*
X018953Y004680D03*
X018953Y003680D03*
X018953Y002680D03*
X018453Y000680D03*
X017453Y000680D03*
X016453Y000680D03*
X015453Y000680D03*
X014453Y000680D03*
X013453Y000680D03*
X012453Y000680D03*
X011453Y000680D03*
X010453Y000680D03*
X009453Y000680D03*
X008453Y000680D03*
X007453Y000680D03*
X006453Y000680D03*
X005453Y000680D03*
X004453Y000680D03*
X003453Y000680D03*
X002453Y000680D03*
X001453Y000680D03*
X001453Y009680D03*
D12*
X003476Y005810D03*
X003476Y005495D03*
X003476Y005180D03*
X003476Y004865D03*
X003476Y004550D03*
D13*
X003476Y003448D03*
X001311Y003448D03*
X001311Y006912D03*
X003476Y006912D03*
D14*
X004667Y006235D03*
X006439Y006235D03*
X007267Y006235D03*
X009039Y006235D03*
X009039Y008125D03*
X007267Y008125D03*
X006439Y008125D03*
X004667Y008125D03*
D15*
X016953Y005180D03*
D16*
X016953Y006164D03*
X016953Y004196D03*
D17*
X005211Y003986D03*
X005211Y003080D03*
X005211Y002174D03*
D18*
X007495Y003080D03*
D19*
G36*
X010484Y004554D02*
X010039Y004109D01*
X009900Y004248D01*
X010345Y004693D01*
X010484Y004554D01*
G37*
G36*
X010706Y004331D02*
X010261Y003886D01*
X010122Y004025D01*
X010567Y004470D01*
X010706Y004331D01*
G37*
G36*
X010929Y004108D02*
X010484Y003663D01*
X010345Y003802D01*
X010790Y004247D01*
X010929Y004108D01*
G37*
G36*
X011152Y003885D02*
X010707Y003440D01*
X010568Y003579D01*
X011013Y004024D01*
X011152Y003885D01*
G37*
G36*
X011375Y003663D02*
X010930Y003218D01*
X010791Y003357D01*
X011236Y003802D01*
X011375Y003663D01*
G37*
G36*
X011597Y003440D02*
X011152Y002995D01*
X011013Y003134D01*
X011458Y003579D01*
X011597Y003440D01*
G37*
G36*
X011820Y003217D02*
X011375Y002772D01*
X011236Y002911D01*
X011681Y003356D01*
X011820Y003217D01*
G37*
G36*
X012043Y002995D02*
X011598Y002550D01*
X011459Y002689D01*
X011904Y003134D01*
X012043Y002995D01*
G37*
G36*
X012265Y002772D02*
X011820Y002327D01*
X011681Y002466D01*
X012126Y002911D01*
X012265Y002772D01*
G37*
G36*
X012488Y002549D02*
X012043Y002104D01*
X011904Y002243D01*
X012349Y002688D01*
X012488Y002549D01*
G37*
G36*
X013463Y002104D02*
X013018Y002549D01*
X013157Y002688D01*
X013602Y002243D01*
X013463Y002104D01*
G37*
G36*
X013685Y002327D02*
X013240Y002772D01*
X013379Y002911D01*
X013824Y002466D01*
X013685Y002327D01*
G37*
G36*
X013908Y002550D02*
X013463Y002995D01*
X013602Y003134D01*
X014047Y002689D01*
X013908Y002550D01*
G37*
G36*
X014131Y002772D02*
X013686Y003217D01*
X013825Y003356D01*
X014270Y002911D01*
X014131Y002772D01*
G37*
G36*
X014353Y002995D02*
X013908Y003440D01*
X014047Y003579D01*
X014492Y003134D01*
X014353Y002995D01*
G37*
G36*
X014270Y003802D02*
X014715Y003357D01*
X014576Y003218D01*
X014131Y003663D01*
X014270Y003802D01*
G37*
G36*
X014493Y004024D02*
X014938Y003579D01*
X014799Y003440D01*
X014354Y003885D01*
X014493Y004024D01*
G37*
G36*
X014716Y004247D02*
X015161Y003802D01*
X015022Y003663D01*
X014577Y004108D01*
X014716Y004247D01*
G37*
G36*
X014938Y004470D02*
X015383Y004025D01*
X015244Y003886D01*
X014799Y004331D01*
X014938Y004470D01*
G37*
G36*
X015161Y004693D02*
X015606Y004248D01*
X015467Y004109D01*
X015022Y004554D01*
X015161Y004693D01*
G37*
G36*
X015384Y004915D02*
X015829Y004470D01*
X015690Y004331D01*
X015245Y004776D01*
X015384Y004915D01*
G37*
G36*
X015245Y005584D02*
X015690Y006029D01*
X015829Y005890D01*
X015384Y005445D01*
X015245Y005584D01*
G37*
G36*
X015606Y006112D02*
X015161Y005667D01*
X015022Y005806D01*
X015467Y006251D01*
X015606Y006112D01*
G37*
G36*
X015383Y006335D02*
X014938Y005890D01*
X014799Y006029D01*
X015244Y006474D01*
X015383Y006335D01*
G37*
G36*
X015161Y006558D02*
X014716Y006113D01*
X014577Y006252D01*
X015022Y006697D01*
X015161Y006558D01*
G37*
G36*
X014938Y006781D02*
X014493Y006336D01*
X014354Y006475D01*
X014799Y006920D01*
X014938Y006781D01*
G37*
G36*
X014715Y007003D02*
X014270Y006558D01*
X014131Y006697D01*
X014576Y007142D01*
X014715Y007003D01*
G37*
G36*
X014492Y007226D02*
X014047Y006781D01*
X013908Y006920D01*
X014353Y007365D01*
X014492Y007226D01*
G37*
G36*
X014270Y007449D02*
X013825Y007004D01*
X013686Y007143D01*
X014131Y007588D01*
X014270Y007449D01*
G37*
G36*
X014047Y007671D02*
X013602Y007226D01*
X013463Y007365D01*
X013908Y007810D01*
X014047Y007671D01*
G37*
G36*
X013824Y007894D02*
X013379Y007449D01*
X013240Y007588D01*
X013685Y008033D01*
X013824Y007894D01*
G37*
G36*
X013602Y008117D02*
X013157Y007672D01*
X013018Y007811D01*
X013463Y008256D01*
X013602Y008117D01*
G37*
G36*
X012043Y008256D02*
X012488Y007811D01*
X012349Y007672D01*
X011904Y008117D01*
X012043Y008256D01*
G37*
G36*
X011820Y008033D02*
X012265Y007588D01*
X012126Y007449D01*
X011681Y007894D01*
X011820Y008033D01*
G37*
G36*
X011598Y007810D02*
X012043Y007365D01*
X011904Y007226D01*
X011459Y007671D01*
X011598Y007810D01*
G37*
G36*
X011375Y007588D02*
X011820Y007143D01*
X011681Y007004D01*
X011236Y007449D01*
X011375Y007588D01*
G37*
G36*
X011152Y007365D02*
X011597Y006920D01*
X011458Y006781D01*
X011013Y007226D01*
X011152Y007365D01*
G37*
G36*
X010930Y007142D02*
X011375Y006697D01*
X011236Y006558D01*
X010791Y007003D01*
X010930Y007142D01*
G37*
G36*
X010707Y006920D02*
X011152Y006475D01*
X011013Y006336D01*
X010568Y006781D01*
X010707Y006920D01*
G37*
G36*
X010484Y006697D02*
X010929Y006252D01*
X010790Y006113D01*
X010345Y006558D01*
X010484Y006697D01*
G37*
G36*
X010261Y006474D02*
X010706Y006029D01*
X010567Y005890D01*
X010122Y006335D01*
X010261Y006474D01*
G37*
G36*
X010039Y006251D02*
X010484Y005806D01*
X010345Y005667D01*
X009900Y006112D01*
X010039Y006251D01*
G37*
G36*
X009816Y006029D02*
X010261Y005584D01*
X010122Y005445D01*
X009677Y005890D01*
X009816Y006029D01*
G37*
G36*
X010261Y004776D02*
X009816Y004331D01*
X009677Y004470D01*
X010122Y004915D01*
X010261Y004776D01*
G37*
D20*
X009168Y005280D03*
X008538Y005280D03*
X010553Y007565D03*
X010553Y008195D03*
X014253Y008065D03*
X014253Y008695D03*
X003768Y008480D03*
X003138Y008480D03*
X003138Y007880D03*
X003768Y007880D03*
X010453Y002795D03*
X010453Y002165D03*
X015638Y001880D03*
X016268Y001880D03*
X016268Y002480D03*
X015638Y002480D03*
D21*
X016920Y002580D03*
X016920Y001980D03*
X017786Y001980D03*
X017786Y002580D03*
D22*
X017465Y007480D03*
X016441Y007480D03*
X003565Y002180D03*
X002541Y002180D03*
D23*
X008553Y002468D03*
X008553Y003492D03*
D24*
X008596Y003509D02*
X009258Y003509D01*
X009253Y003520D02*
X009299Y003410D01*
X009383Y003326D01*
X009493Y003280D01*
X009553Y003280D01*
X009553Y003204D01*
X009499Y003150D01*
X009453Y003040D01*
X009453Y002920D01*
X009499Y002810D01*
X009583Y002726D01*
X009693Y002680D01*
X009813Y002680D01*
X009923Y002726D01*
X010007Y002810D01*
X010053Y002920D01*
X010053Y003040D01*
X010024Y003109D01*
X010093Y003080D01*
X010099Y003080D01*
X010088Y003061D01*
X010076Y003016D01*
X010076Y002813D01*
X010434Y002813D01*
X010434Y002777D01*
X010076Y002777D01*
X010076Y002574D01*
X010088Y002529D01*
X010112Y002488D01*
X010134Y002466D01*
X010096Y002428D01*
X010096Y002385D01*
X009159Y002385D01*
X009073Y002471D01*
X008959Y002585D01*
X008959Y002879D01*
X008865Y002973D01*
X008843Y002973D01*
X008868Y002980D01*
X008909Y003003D01*
X008943Y003037D01*
X008967Y003078D01*
X008979Y003124D01*
X008979Y003449D01*
X008596Y003449D01*
X008596Y003535D01*
X008510Y003535D01*
X008510Y004016D01*
X008283Y004016D01*
X008237Y004004D01*
X008196Y003980D01*
X008163Y003947D01*
X008139Y003906D01*
X008127Y003860D01*
X008127Y003535D01*
X008510Y003535D01*
X008510Y003449D01*
X008127Y003449D01*
X008127Y003124D01*
X008139Y003078D01*
X008163Y003037D01*
X008196Y003003D01*
X008237Y002980D01*
X008263Y002973D01*
X008240Y002973D01*
X008147Y002879D01*
X008147Y002700D01*
X008144Y002700D01*
X008078Y002766D01*
X008078Y003786D01*
X007984Y003880D01*
X007715Y003880D01*
X007715Y004431D01*
X007944Y004660D01*
X008229Y004660D01*
X008492Y004923D01*
X008801Y004923D01*
X008853Y004975D01*
X008905Y004923D01*
X009431Y004923D01*
X009525Y005017D01*
X009525Y005080D01*
X010470Y005080D01*
X010953Y004597D01*
X011070Y004480D01*
X013670Y004480D01*
X013653Y004440D01*
X013653Y004320D01*
X013699Y004210D01*
X013783Y004126D01*
X013893Y004080D01*
X013970Y004080D01*
X014146Y003904D01*
X013981Y003739D01*
X013979Y003737D01*
X013853Y003863D01*
X013853Y003940D01*
X013807Y004050D01*
X013723Y004134D01*
X013613Y004180D01*
X013493Y004180D01*
X013383Y004134D01*
X013299Y004050D01*
X013253Y003940D01*
X013253Y003820D01*
X013299Y003710D01*
X013383Y003626D01*
X013493Y003580D01*
X013570Y003580D01*
X013696Y003454D01*
X013525Y003284D01*
X013525Y003284D01*
X013313Y003071D01*
X013313Y003071D01*
X013090Y002848D01*
X012857Y002616D01*
X012857Y002483D01*
X013396Y001944D01*
X013529Y001944D01*
X013762Y002177D01*
X013953Y002368D01*
X013953Y001580D01*
X013270Y001580D01*
X013070Y001380D01*
X012470Y001380D01*
X012396Y001306D01*
X012396Y002231D01*
X012648Y002483D01*
X012648Y002616D01*
X012415Y002848D01*
X012193Y003071D01*
X012193Y003071D01*
X011980Y003284D01*
X011804Y003460D01*
X011849Y003460D01*
X011883Y003426D01*
X011993Y003380D01*
X012113Y003380D01*
X012223Y003426D01*
X012307Y003510D01*
X012353Y003620D01*
X012353Y003740D01*
X012307Y003850D01*
X012223Y003934D01*
X012113Y003980D01*
X011993Y003980D01*
X011883Y003934D01*
X011849Y003900D01*
X011607Y003900D01*
X011500Y003793D01*
X011432Y003860D01*
X011346Y003946D01*
X011305Y003970D01*
X011290Y003974D01*
X011089Y004174D01*
X010856Y004407D01*
X010644Y004620D01*
X010421Y004843D01*
X010188Y005076D01*
X010056Y005076D01*
X009803Y004823D01*
X009013Y004823D01*
X008896Y004706D01*
X008870Y004680D01*
X008793Y004680D01*
X008683Y004634D01*
X008599Y004550D01*
X008553Y004440D01*
X008553Y004320D01*
X008599Y004210D01*
X008683Y004126D01*
X008793Y004080D01*
X008913Y004080D01*
X009023Y004126D01*
X009107Y004210D01*
X009153Y004320D01*
X009153Y004397D01*
X009179Y004423D01*
X009517Y004423D01*
X009517Y004404D01*
X009560Y004360D01*
X009513Y004380D01*
X009393Y004380D01*
X009283Y004334D01*
X009199Y004250D01*
X009153Y004140D01*
X009153Y004020D01*
X009199Y003910D01*
X009283Y003826D01*
X009347Y003799D01*
X009299Y003750D01*
X009253Y003640D01*
X009253Y003520D01*
X009359Y003350D02*
X008979Y003350D01*
X008979Y003192D02*
X009540Y003192D01*
X009453Y003033D02*
X008939Y003033D01*
X008959Y002875D02*
X009472Y002875D01*
X009606Y002716D02*
X008959Y002716D01*
X008986Y002558D02*
X010081Y002558D01*
X010096Y002399D02*
X009145Y002399D01*
X008912Y002010D02*
X008977Y001945D01*
X010096Y001945D01*
X010096Y001902D01*
X010190Y001808D01*
X010716Y001808D01*
X010810Y001902D01*
X010810Y002026D01*
X010944Y002160D01*
X010953Y002169D01*
X010953Y001863D01*
X010870Y001780D01*
X010170Y001780D01*
X009970Y001580D01*
X009370Y001580D01*
X009170Y001380D01*
X008470Y001380D01*
X008370Y001280D01*
X008253Y001163D01*
X008253Y001122D01*
X008178Y001091D01*
X008042Y000955D01*
X007968Y000776D01*
X007968Y000584D01*
X008042Y000405D01*
X008087Y000360D01*
X007818Y000360D01*
X007864Y000405D01*
X007938Y000584D01*
X007938Y000776D01*
X007864Y000955D01*
X007727Y001091D01*
X007549Y001165D01*
X007356Y001165D01*
X007178Y001091D01*
X007042Y000955D01*
X006968Y000776D01*
X006968Y000584D01*
X007042Y000405D01*
X007087Y000360D01*
X006818Y000360D01*
X006864Y000405D01*
X006938Y000584D01*
X006938Y000776D01*
X006864Y000955D01*
X006727Y001091D01*
X006549Y001165D01*
X006356Y001165D01*
X006178Y001091D01*
X006042Y000955D01*
X005968Y000776D01*
X005968Y000584D01*
X006042Y000405D01*
X006087Y000360D01*
X005818Y000360D01*
X005864Y000405D01*
X005938Y000584D01*
X005938Y000776D01*
X005864Y000955D01*
X005727Y001091D01*
X005549Y001165D01*
X005356Y001165D01*
X005178Y001091D01*
X005042Y000955D01*
X004968Y000776D01*
X004968Y000584D01*
X005042Y000405D01*
X005087Y000360D01*
X004818Y000360D01*
X004864Y000405D01*
X004938Y000584D01*
X004938Y000776D01*
X004864Y000955D01*
X004727Y001091D01*
X004549Y001165D01*
X004356Y001165D01*
X004178Y001091D01*
X004042Y000955D01*
X003968Y000776D01*
X003968Y000584D01*
X004042Y000405D01*
X004087Y000360D01*
X003818Y000360D01*
X003864Y000405D01*
X003938Y000584D01*
X003938Y000776D01*
X003915Y000831D01*
X004444Y001360D01*
X005844Y001360D01*
X005973Y001489D01*
X006273Y001789D01*
X006273Y002971D01*
X006144Y003100D01*
X006073Y003171D01*
X005944Y003300D01*
X005794Y003300D01*
X005794Y003343D01*
X005701Y003437D01*
X004722Y003437D01*
X004628Y003343D01*
X004628Y002817D01*
X004722Y002723D01*
X005701Y002723D01*
X005794Y002817D01*
X005794Y002827D01*
X005833Y002789D01*
X005833Y001971D01*
X005794Y001933D01*
X005794Y002438D01*
X005701Y002531D01*
X004722Y002531D01*
X004628Y002438D01*
X004628Y002394D01*
X004069Y002394D01*
X004069Y002492D01*
X003975Y002586D01*
X003154Y002586D01*
X003060Y002492D01*
X003060Y002470D01*
X003053Y002496D01*
X003030Y002537D01*
X002996Y002570D01*
X002955Y002594D01*
X002909Y002606D01*
X002584Y002606D01*
X002584Y002223D01*
X002498Y002223D01*
X002498Y002606D01*
X002173Y002606D01*
X002173Y002606D01*
X002173Y004089D01*
X002251Y004011D01*
X002382Y003957D01*
X002524Y003957D01*
X002655Y004011D01*
X002756Y004112D01*
X002810Y004243D01*
X002810Y004385D01*
X002756Y004516D01*
X002655Y004617D01*
X002524Y004671D01*
X002382Y004671D01*
X002251Y004617D01*
X002173Y004539D01*
X002173Y005360D01*
X002644Y005360D01*
X002773Y005489D01*
X002824Y005540D01*
X002824Y004731D01*
X002817Y004718D01*
X002804Y004672D01*
X002804Y004550D01*
X002804Y004428D01*
X002817Y004382D01*
X002840Y004341D01*
X002874Y004308D01*
X002915Y004284D01*
X002961Y004272D01*
X003476Y004272D01*
X003476Y004550D01*
X002804Y004550D01*
X003476Y004550D01*
X003476Y004550D01*
X003476Y004550D01*
X003476Y004272D01*
X003992Y004272D01*
X004038Y004284D01*
X004079Y004308D01*
X004113Y004341D01*
X004136Y004382D01*
X004149Y004428D01*
X004149Y004550D01*
X003476Y004550D01*
X003476Y004550D01*
X004149Y004550D01*
X004149Y004672D01*
X004136Y004718D01*
X004129Y004731D01*
X004129Y004980D01*
X006670Y004980D01*
X006699Y004910D01*
X006783Y004826D01*
X006893Y004780D01*
X007013Y004780D01*
X007123Y004826D01*
X007207Y004910D01*
X007253Y005020D01*
X007253Y005080D01*
X007313Y005080D01*
X007423Y005126D01*
X007507Y005210D01*
X007553Y005320D01*
X007553Y005440D01*
X007518Y005524D01*
X007609Y005524D01*
X007703Y005618D01*
X007703Y006853D01*
X007609Y006946D01*
X006925Y006946D01*
X006853Y006874D01*
X006781Y006946D01*
X006097Y006946D01*
X006003Y006853D01*
X006003Y006542D01*
X005913Y006580D01*
X005793Y006580D01*
X005683Y006534D01*
X005599Y006450D01*
X005553Y006340D01*
X005553Y006220D01*
X005599Y006110D01*
X005683Y006026D01*
X005793Y005980D01*
X005913Y005980D01*
X006003Y006018D01*
X006003Y005695D01*
X005103Y005695D01*
X005103Y006853D01*
X005009Y006946D01*
X004853Y006946D01*
X004853Y007263D01*
X004736Y007380D01*
X004609Y007506D01*
X004609Y008067D01*
X004211Y008067D01*
X004211Y008004D01*
X004136Y008080D01*
X004125Y008080D01*
X004125Y008143D01*
X004088Y008180D01*
X004125Y008217D01*
X004125Y008743D01*
X004031Y008837D01*
X003505Y008837D01*
X003467Y008799D01*
X003445Y008821D01*
X003404Y008845D01*
X003358Y008857D01*
X003156Y008857D01*
X003156Y008498D01*
X003119Y008498D01*
X003119Y008462D01*
X002761Y008462D01*
X002761Y008259D01*
X002773Y008214D01*
X002797Y008173D01*
X002804Y008166D01*
X002781Y008143D01*
X002781Y008100D01*
X002744Y008100D01*
X002673Y008171D01*
X002673Y009246D01*
X002727Y009269D01*
X002864Y009405D01*
X002938Y009584D01*
X002938Y009776D01*
X002864Y009955D01*
X002822Y009996D01*
X003083Y009996D01*
X003042Y009955D01*
X002968Y009776D01*
X002968Y009584D01*
X003042Y009405D01*
X003178Y009269D01*
X003354Y009196D01*
X003370Y009180D01*
X003570Y008980D01*
X005170Y008980D01*
X005253Y008897D01*
X005253Y008304D01*
X005199Y008250D01*
X005153Y008140D01*
X005153Y008020D01*
X005199Y007910D01*
X005283Y007826D01*
X005393Y007780D01*
X005513Y007780D01*
X005623Y007826D01*
X005707Y007910D01*
X005753Y008020D01*
X005753Y008140D01*
X005707Y008250D01*
X005653Y008304D01*
X005653Y009063D01*
X005520Y009195D01*
X005549Y009195D01*
X005727Y009269D01*
X005864Y009405D01*
X005938Y009584D01*
X005938Y009776D01*
X005864Y009955D01*
X005822Y009996D01*
X006083Y009996D01*
X006042Y009955D01*
X005968Y009776D01*
X005968Y009584D01*
X006042Y009405D01*
X006178Y009269D01*
X006356Y009195D01*
X006549Y009195D01*
X006727Y009269D01*
X006864Y009405D01*
X006938Y009584D01*
X006938Y009776D01*
X006864Y009955D01*
X006822Y009996D01*
X007083Y009996D01*
X007042Y009955D01*
X006968Y009776D01*
X006968Y009584D01*
X007042Y009405D01*
X007178Y009269D01*
X007356Y009195D01*
X007549Y009195D01*
X007727Y009269D01*
X007864Y009405D01*
X007938Y009584D01*
X007938Y009776D01*
X007864Y009955D01*
X007822Y009996D01*
X008083Y009996D01*
X008042Y009955D01*
X007968Y009776D01*
X007968Y009584D01*
X008042Y009405D01*
X008178Y009269D01*
X008356Y009195D01*
X008549Y009195D01*
X008727Y009269D01*
X008864Y009405D01*
X008938Y009584D01*
X008938Y009776D01*
X008864Y009955D01*
X008822Y009996D01*
X009083Y009996D01*
X009042Y009955D01*
X008968Y009776D01*
X008968Y009584D01*
X009042Y009405D01*
X009178Y009269D01*
X009356Y009195D01*
X009549Y009195D01*
X009727Y009269D01*
X009864Y009405D01*
X009938Y009584D01*
X009938Y009776D01*
X009864Y009955D01*
X009822Y009996D01*
X010083Y009996D01*
X010042Y009955D01*
X009968Y009776D01*
X009968Y009584D01*
X010042Y009405D01*
X010178Y009269D01*
X010356Y009195D01*
X010549Y009195D01*
X010727Y009269D01*
X010864Y009405D01*
X010938Y009584D01*
X010938Y009776D01*
X010864Y009955D01*
X010822Y009996D01*
X011083Y009996D01*
X011042Y009955D01*
X010968Y009776D01*
X010968Y009584D01*
X011042Y009405D01*
X011178Y009269D01*
X011356Y009195D01*
X011549Y009195D01*
X011727Y009269D01*
X011864Y009405D01*
X011938Y009584D01*
X011938Y009776D01*
X011864Y009955D01*
X011822Y009996D01*
X012083Y009996D01*
X012042Y009955D01*
X011968Y009776D01*
X011968Y009584D01*
X012042Y009405D01*
X012178Y009269D01*
X012356Y009195D01*
X012549Y009195D01*
X012727Y009269D01*
X012864Y009405D01*
X012938Y009584D01*
X012938Y009776D01*
X012864Y009955D01*
X012822Y009996D01*
X013083Y009996D01*
X013042Y009955D01*
X012968Y009776D01*
X012968Y009584D01*
X013042Y009405D01*
X013178Y009269D01*
X013356Y009195D01*
X013549Y009195D01*
X013727Y009269D01*
X013864Y009405D01*
X013938Y009584D01*
X013938Y009776D01*
X013864Y009955D01*
X013822Y009996D01*
X014083Y009996D01*
X014042Y009955D01*
X013968Y009776D01*
X013968Y009584D01*
X014042Y009405D01*
X014178Y009269D01*
X014356Y009195D01*
X014549Y009195D01*
X014727Y009269D01*
X014864Y009405D01*
X014938Y009584D01*
X014938Y009776D01*
X014864Y009955D01*
X014822Y009996D01*
X015083Y009996D01*
X015042Y009955D01*
X014968Y009776D01*
X014968Y009584D01*
X015042Y009405D01*
X015178Y009269D01*
X015356Y009195D01*
X015549Y009195D01*
X015727Y009269D01*
X015864Y009405D01*
X015938Y009584D01*
X015938Y009776D01*
X015864Y009955D01*
X015822Y009996D01*
X016083Y009996D01*
X016042Y009955D01*
X015968Y009776D01*
X015968Y009584D01*
X016042Y009405D01*
X016178Y009269D01*
X016356Y009195D01*
X016549Y009195D01*
X016727Y009269D01*
X016864Y009405D01*
X016938Y009584D01*
X016938Y009776D01*
X016864Y009955D01*
X016822Y009996D01*
X017083Y009996D01*
X017042Y009955D01*
X016968Y009776D01*
X016968Y009584D01*
X017042Y009405D01*
X017178Y009269D01*
X017356Y009195D01*
X017549Y009195D01*
X017727Y009269D01*
X017864Y009405D01*
X017938Y009584D01*
X017938Y009776D01*
X017864Y009955D01*
X017822Y009996D01*
X018083Y009996D01*
X018042Y009955D01*
X017968Y009776D01*
X017968Y009584D01*
X018042Y009405D01*
X018178Y009269D01*
X018356Y009195D01*
X018549Y009195D01*
X018727Y009269D01*
X018864Y009405D01*
X018938Y009584D01*
X018938Y009776D01*
X018864Y009955D01*
X018822Y009996D01*
X019268Y009996D01*
X019268Y008051D01*
X019227Y008091D01*
X019049Y008165D01*
X018856Y008165D01*
X018678Y008091D01*
X018673Y008086D01*
X018673Y008471D01*
X018473Y008671D01*
X018344Y008800D01*
X014744Y008800D01*
X014644Y008900D01*
X014610Y008900D01*
X014610Y008958D01*
X014516Y009052D01*
X013990Y009052D01*
X013896Y008958D01*
X013896Y008915D01*
X012077Y008915D01*
X011162Y008000D01*
X011033Y007871D01*
X011033Y007800D01*
X010910Y007800D01*
X010910Y007828D01*
X010872Y007866D01*
X010894Y007888D01*
X010917Y007929D01*
X010930Y007974D01*
X010930Y008177D01*
X010571Y008177D01*
X010571Y008213D01*
X010930Y008213D01*
X010930Y008416D01*
X010917Y008461D01*
X010894Y008502D01*
X010860Y008536D01*
X010819Y008560D01*
X010773Y008572D01*
X010571Y008572D01*
X010571Y008213D01*
X010534Y008213D01*
X010534Y008177D01*
X010176Y008177D01*
X010176Y007974D01*
X010182Y007951D01*
X010113Y007980D01*
X009993Y007980D01*
X009953Y007963D01*
X009953Y008040D01*
X009907Y008150D01*
X009823Y008234D01*
X009713Y008280D01*
X009593Y008280D01*
X009494Y008239D01*
X009494Y008700D01*
X009482Y008746D01*
X009458Y008787D01*
X009425Y008820D01*
X009384Y008844D01*
X009338Y008856D01*
X009096Y008856D01*
X009096Y008183D01*
X008981Y008183D01*
X008981Y008856D01*
X008739Y008856D01*
X008694Y008844D01*
X008653Y008820D01*
X008619Y008787D01*
X008595Y008746D01*
X008583Y008700D01*
X008583Y008183D01*
X008981Y008183D01*
X008981Y008067D01*
X009096Y008067D01*
X009096Y007394D01*
X009338Y007394D01*
X009384Y007406D01*
X009425Y007430D01*
X009453Y007458D01*
X009453Y006874D01*
X009381Y006946D01*
X008698Y006946D01*
X008653Y006991D01*
X008653Y007040D01*
X008607Y007150D01*
X008523Y007234D01*
X008413Y007280D01*
X008293Y007280D01*
X008183Y007234D01*
X008099Y007150D01*
X008053Y007040D01*
X008053Y006920D01*
X008099Y006810D01*
X008183Y006726D01*
X008293Y006680D01*
X008318Y006680D01*
X008318Y005637D01*
X008275Y005637D01*
X008181Y005543D01*
X008181Y005234D01*
X008047Y005100D01*
X007762Y005100D01*
X007633Y004971D01*
X007403Y004742D01*
X007275Y004613D01*
X007275Y003880D01*
X007005Y003880D01*
X006911Y003786D01*
X006911Y002374D01*
X007005Y002280D01*
X007941Y002280D01*
X007962Y002260D01*
X008147Y002260D01*
X008147Y002057D01*
X008240Y001964D01*
X008865Y001964D01*
X008912Y002010D01*
X008147Y002082D02*
X006273Y002082D01*
X006273Y002241D02*
X008147Y002241D01*
X008128Y002716D02*
X008147Y002716D01*
X008147Y002875D02*
X008078Y002875D01*
X008078Y003033D02*
X008167Y003033D01*
X008127Y003192D02*
X008078Y003192D01*
X008078Y003350D02*
X008127Y003350D01*
X008078Y003509D02*
X008510Y003509D01*
X008596Y003535D02*
X008596Y004016D01*
X008823Y004016D01*
X008868Y004004D01*
X008909Y003980D01*
X008943Y003947D01*
X008967Y003906D01*
X008979Y003860D01*
X008979Y003535D01*
X008596Y003535D01*
X008596Y003667D02*
X008510Y003667D01*
X008510Y003826D02*
X008596Y003826D01*
X008596Y003984D02*
X008510Y003984D01*
X008666Y004143D02*
X007715Y004143D01*
X007715Y003984D02*
X008203Y003984D01*
X008127Y003826D02*
X008038Y003826D01*
X008078Y003667D02*
X008127Y003667D01*
X008903Y003984D02*
X009168Y003984D01*
X009154Y004143D02*
X009040Y004143D01*
X009145Y004301D02*
X009250Y004301D01*
X008667Y004618D02*
X007902Y004618D01*
X007743Y004460D02*
X008561Y004460D01*
X008561Y004301D02*
X007715Y004301D01*
X007275Y004301D02*
X005770Y004301D01*
X005778Y004293D02*
X005745Y004326D01*
X005704Y004350D01*
X005658Y004362D01*
X005230Y004362D01*
X005230Y004004D01*
X005814Y004004D01*
X005814Y004206D01*
X005802Y004252D01*
X005778Y004293D01*
X005814Y004143D02*
X007275Y004143D01*
X007275Y003984D02*
X005230Y003984D01*
X005230Y003967D02*
X005230Y004004D01*
X005193Y004004D01*
X005193Y004362D01*
X004764Y004362D01*
X004718Y004350D01*
X004677Y004326D01*
X004644Y004293D01*
X004620Y004252D01*
X004608Y004206D01*
X004608Y004004D01*
X005193Y004004D01*
X005193Y003967D01*
X005230Y003967D01*
X005814Y003967D01*
X005814Y003765D01*
X005802Y003719D01*
X005778Y003678D01*
X005745Y003645D01*
X005704Y003621D01*
X005658Y003609D01*
X005230Y003609D01*
X005230Y003967D01*
X005193Y003967D02*
X005193Y003609D01*
X004764Y003609D01*
X004718Y003621D01*
X004677Y003645D01*
X004644Y003678D01*
X004620Y003719D01*
X004608Y003765D01*
X004608Y003967D01*
X005193Y003967D01*
X005193Y003984D02*
X004052Y003984D01*
X004035Y004001D02*
X002918Y004001D01*
X002824Y003908D01*
X002824Y002988D01*
X002918Y002894D01*
X004035Y002894D01*
X004129Y002988D01*
X004129Y003908D01*
X004035Y004001D01*
X004129Y003826D02*
X004608Y003826D01*
X004655Y003667D02*
X004129Y003667D01*
X004129Y003509D02*
X006911Y003509D01*
X006911Y003350D02*
X005787Y003350D01*
X006052Y003192D02*
X006911Y003192D01*
X006911Y003033D02*
X006211Y003033D01*
X006073Y003171D02*
X006073Y003171D01*
X006273Y002875D02*
X006911Y002875D01*
X006911Y002716D02*
X006273Y002716D01*
X006273Y002558D02*
X006911Y002558D01*
X006911Y002399D02*
X006273Y002399D01*
X005833Y002399D02*
X005794Y002399D01*
X005833Y002558D02*
X004004Y002558D01*
X004069Y002399D02*
X004628Y002399D01*
X004628Y002875D02*
X002173Y002875D01*
X002173Y002716D02*
X005833Y002716D01*
X005833Y002241D02*
X005794Y002241D01*
X005794Y002082D02*
X005833Y002082D01*
X006273Y001924D02*
X010096Y001924D01*
X010155Y001765D02*
X006249Y001765D01*
X006090Y001607D02*
X009996Y001607D01*
X009238Y001448D02*
X005932Y001448D01*
X005631Y001131D02*
X006275Y001131D01*
X006060Y000973D02*
X005846Y000973D01*
X005922Y000814D02*
X005984Y000814D01*
X005968Y000656D02*
X005938Y000656D01*
X005902Y000497D02*
X006004Y000497D01*
X006902Y000497D02*
X007004Y000497D01*
X006968Y000656D02*
X006938Y000656D01*
X006922Y000814D02*
X006984Y000814D01*
X007060Y000973D02*
X006846Y000973D01*
X006631Y001131D02*
X007275Y001131D01*
X007631Y001131D02*
X008253Y001131D01*
X008060Y000973D02*
X007846Y000973D01*
X007922Y000814D02*
X007984Y000814D01*
X007968Y000656D02*
X007938Y000656D01*
X007902Y000497D02*
X008004Y000497D01*
X008379Y001290D02*
X004373Y001290D01*
X004275Y001131D02*
X004215Y001131D01*
X004060Y000973D02*
X004056Y000973D01*
X003984Y000814D02*
X003922Y000814D01*
X003938Y000656D02*
X003968Y000656D01*
X004004Y000497D02*
X003902Y000497D01*
X003087Y000360D02*
X002844Y000360D01*
X002885Y000415D01*
X002921Y000486D01*
X002945Y000562D01*
X002958Y000640D01*
X002958Y000652D01*
X002481Y000652D01*
X002481Y000708D01*
X002958Y000708D01*
X002958Y000720D01*
X002945Y000798D01*
X002921Y000874D01*
X002885Y000945D01*
X002873Y000960D01*
X003047Y000960D01*
X003042Y000955D01*
X002968Y000776D01*
X002968Y000584D01*
X003042Y000405D01*
X003087Y000360D01*
X003004Y000497D02*
X002924Y000497D01*
X002968Y000656D02*
X002481Y000656D01*
X002425Y000656D02*
X001938Y000656D01*
X001948Y000652D02*
X001948Y000640D01*
X001960Y000562D01*
X001985Y000486D01*
X002021Y000415D01*
X002061Y000360D01*
X001818Y000360D01*
X001864Y000405D01*
X001938Y000584D01*
X001938Y000776D01*
X001864Y000955D01*
X001858Y000960D01*
X002032Y000960D01*
X002021Y000945D01*
X001985Y000874D01*
X001960Y000798D01*
X001948Y000720D01*
X001948Y000708D01*
X002425Y000708D01*
X002425Y000652D01*
X001948Y000652D01*
X001966Y000814D02*
X001922Y000814D01*
X001902Y000497D02*
X001982Y000497D01*
X002940Y000814D02*
X002984Y000814D01*
X003262Y001400D02*
X002173Y001400D01*
X002173Y001754D01*
X002173Y001754D01*
X002498Y001754D01*
X002498Y002137D01*
X002584Y002137D01*
X002584Y001754D01*
X002909Y001754D01*
X002955Y001766D01*
X002996Y001790D01*
X003030Y001823D01*
X003053Y001864D01*
X003060Y001890D01*
X003060Y001868D01*
X003154Y001774D01*
X003333Y001774D01*
X003333Y001471D01*
X003262Y001400D01*
X003310Y001448D02*
X002173Y001448D01*
X002173Y001607D02*
X003333Y001607D01*
X003333Y001765D02*
X002951Y001765D01*
X002584Y001765D02*
X002498Y001765D01*
X002498Y001924D02*
X002584Y001924D01*
X002584Y002082D02*
X002498Y002082D01*
X002498Y002241D02*
X002584Y002241D01*
X002584Y002399D02*
X002498Y002399D01*
X002498Y002558D02*
X002584Y002558D01*
X003009Y002558D02*
X003125Y002558D01*
X002824Y003033D02*
X002173Y003033D01*
X002173Y003192D02*
X002824Y003192D01*
X002824Y003350D02*
X002173Y003350D01*
X002173Y003509D02*
X002824Y003509D01*
X002824Y003667D02*
X002173Y003667D01*
X002173Y003826D02*
X002824Y003826D01*
X002901Y003984D02*
X002590Y003984D01*
X002768Y004143D02*
X004608Y004143D01*
X004652Y004301D02*
X004068Y004301D01*
X004149Y004460D02*
X007275Y004460D01*
X007280Y004618D02*
X004149Y004618D01*
X004129Y004777D02*
X007438Y004777D01*
X007403Y004742D02*
X007403Y004742D01*
X007217Y004935D02*
X007597Y004935D01*
X007755Y005094D02*
X007345Y005094D01*
X007525Y005252D02*
X008181Y005252D01*
X008181Y005411D02*
X007553Y005411D01*
X007654Y005569D02*
X008207Y005569D01*
X008318Y005728D02*
X007703Y005728D01*
X007703Y005886D02*
X008318Y005886D01*
X008318Y006045D02*
X007703Y006045D01*
X007703Y006203D02*
X008318Y006203D01*
X008318Y006362D02*
X007703Y006362D01*
X007703Y006520D02*
X008318Y006520D01*
X008318Y006679D02*
X007703Y006679D01*
X007703Y006837D02*
X008087Y006837D01*
X008053Y006996D02*
X004853Y006996D01*
X004853Y007154D02*
X008103Y007154D01*
X008603Y007154D02*
X009453Y007154D01*
X009453Y007313D02*
X004803Y007313D01*
X004725Y007394D02*
X004966Y007394D01*
X005012Y007406D01*
X005053Y007430D01*
X005087Y007463D01*
X005110Y007504D01*
X005123Y007550D01*
X005123Y008067D01*
X004725Y008067D01*
X004725Y008183D01*
X004609Y008183D01*
X004609Y008856D01*
X004368Y008856D01*
X004322Y008844D01*
X004281Y008820D01*
X004247Y008787D01*
X004224Y008746D01*
X004211Y008700D01*
X004211Y008183D01*
X004609Y008183D01*
X004609Y008067D01*
X004725Y008067D01*
X004725Y007394D01*
X004725Y007471D02*
X004645Y007471D01*
X004609Y007630D02*
X004725Y007630D01*
X004725Y007788D02*
X004609Y007788D01*
X004609Y007947D02*
X004725Y007947D01*
X004725Y008105D02*
X005153Y008105D01*
X005123Y008183D02*
X005123Y008700D01*
X005110Y008746D01*
X005087Y008787D01*
X005053Y008820D01*
X005012Y008844D01*
X004966Y008856D01*
X004725Y008856D01*
X004725Y008183D01*
X005123Y008183D01*
X005123Y008264D02*
X005212Y008264D01*
X005253Y008422D02*
X005123Y008422D01*
X005123Y008581D02*
X005253Y008581D01*
X005253Y008739D02*
X005112Y008739D01*
X005252Y008898D02*
X002673Y008898D01*
X002673Y008739D02*
X002771Y008739D01*
X002773Y008746D02*
X002761Y008701D01*
X002761Y008498D01*
X003119Y008498D01*
X003119Y008857D01*
X002917Y008857D01*
X002872Y008845D01*
X002831Y008821D01*
X002797Y008787D01*
X002773Y008746D01*
X003119Y008739D02*
X003156Y008739D01*
X003156Y008581D02*
X003119Y008581D01*
X002761Y008581D02*
X002673Y008581D01*
X002673Y008422D02*
X002761Y008422D01*
X002761Y008264D02*
X002673Y008264D01*
X002739Y008105D02*
X002781Y008105D01*
X002434Y007788D02*
X000633Y007788D01*
X000633Y007947D02*
X002275Y007947D01*
X002233Y007989D02*
X002562Y007660D01*
X002781Y007660D01*
X002781Y007617D01*
X002875Y007523D01*
X003401Y007523D01*
X003453Y007575D01*
X003505Y007523D01*
X003953Y007523D01*
X003953Y007466D01*
X002918Y007466D01*
X002824Y007372D01*
X002824Y006452D01*
X002918Y006359D01*
X004035Y006359D01*
X004129Y006452D01*
X004129Y007221D01*
X004170Y007180D01*
X004370Y007180D01*
X004453Y007097D01*
X004453Y006946D01*
X004325Y006946D01*
X004231Y006853D01*
X004231Y005695D01*
X004129Y005695D01*
X004129Y005975D01*
X004035Y006068D01*
X002918Y006068D01*
X002880Y006030D01*
X002810Y006030D01*
X002810Y006117D01*
X002756Y006248D01*
X002655Y006349D01*
X002524Y006403D01*
X002382Y006403D01*
X002251Y006349D01*
X002150Y006248D01*
X002096Y006117D01*
X002096Y005975D01*
X002150Y005844D01*
X002194Y005800D01*
X001962Y005800D01*
X001862Y005700D01*
X001733Y005571D01*
X001733Y004001D01*
X000753Y004001D01*
X000659Y003908D01*
X000659Y002988D01*
X000753Y002894D01*
X001733Y002894D01*
X001733Y001571D01*
X001433Y001271D01*
X001305Y001144D01*
X001178Y001091D01*
X001042Y000955D01*
X000968Y000776D01*
X000968Y000584D01*
X001042Y000405D01*
X001087Y000360D01*
X000633Y000360D01*
X000633Y009996D01*
X001058Y009996D01*
X001021Y009945D01*
X000985Y009874D01*
X000960Y009798D01*
X000948Y009720D01*
X000948Y009708D01*
X001425Y009708D01*
X001425Y009652D01*
X001481Y009652D01*
X001481Y009708D01*
X001958Y009708D01*
X001958Y009720D01*
X001945Y009798D01*
X001921Y009874D01*
X001885Y009945D01*
X001847Y009996D01*
X002083Y009996D01*
X002042Y009955D01*
X001968Y009776D01*
X001968Y009584D01*
X002042Y009405D01*
X002178Y009269D01*
X002233Y009246D01*
X002233Y007989D01*
X002233Y008105D02*
X000633Y008105D01*
X000633Y008264D02*
X002233Y008264D01*
X002233Y008422D02*
X000633Y008422D01*
X000633Y008581D02*
X002233Y008581D01*
X002233Y008739D02*
X000633Y008739D01*
X000633Y008898D02*
X002233Y008898D01*
X002233Y009056D02*
X000633Y009056D01*
X000633Y009215D02*
X001254Y009215D01*
X001259Y009212D02*
X001335Y009188D01*
X001413Y009175D01*
X001425Y009175D01*
X001425Y009652D01*
X000948Y009652D01*
X000948Y009640D01*
X000960Y009562D01*
X000985Y009486D01*
X001021Y009415D01*
X001068Y009351D01*
X001124Y009295D01*
X001188Y009248D01*
X001259Y009212D01*
X001425Y009215D02*
X001481Y009215D01*
X001481Y009175D02*
X001493Y009175D01*
X001571Y009188D01*
X001647Y009212D01*
X001717Y009248D01*
X001782Y009295D01*
X001838Y009351D01*
X001885Y009415D01*
X001921Y009486D01*
X001945Y009562D01*
X001958Y009640D01*
X001958Y009652D01*
X001481Y009652D01*
X001481Y009175D01*
X001651Y009215D02*
X002233Y009215D01*
X002074Y009373D02*
X001854Y009373D01*
X001935Y009532D02*
X001990Y009532D01*
X001968Y009690D02*
X001481Y009690D01*
X001425Y009690D02*
X000633Y009690D01*
X000633Y009532D02*
X000970Y009532D01*
X001052Y009373D02*
X000633Y009373D01*
X001425Y009373D02*
X001481Y009373D01*
X001481Y009532D02*
X001425Y009532D01*
X000977Y009849D02*
X000633Y009849D01*
X001929Y009849D02*
X001998Y009849D01*
X002908Y009849D02*
X002998Y009849D01*
X002968Y009690D02*
X002938Y009690D01*
X002916Y009532D02*
X002990Y009532D01*
X003074Y009373D02*
X002831Y009373D01*
X002673Y009215D02*
X003310Y009215D01*
X003494Y009056D02*
X002673Y009056D01*
X004125Y008739D02*
X004222Y008739D01*
X004211Y008581D02*
X004125Y008581D01*
X004125Y008422D02*
X004211Y008422D01*
X004211Y008264D02*
X004125Y008264D01*
X004125Y008105D02*
X004609Y008105D01*
X004609Y008264D02*
X004725Y008264D01*
X004725Y008422D02*
X004609Y008422D01*
X004609Y008581D02*
X004725Y008581D01*
X004725Y008739D02*
X004609Y008739D01*
X005653Y008739D02*
X005994Y008739D01*
X005995Y008746D02*
X005983Y008700D01*
X005983Y008183D01*
X006381Y008183D01*
X006381Y008856D01*
X006139Y008856D01*
X006094Y008844D01*
X006053Y008820D01*
X006019Y008787D01*
X005995Y008746D01*
X005983Y008581D02*
X005653Y008581D01*
X005653Y008422D02*
X005983Y008422D01*
X005983Y008264D02*
X005694Y008264D01*
X005753Y008105D02*
X006381Y008105D01*
X006381Y008067D02*
X006381Y008183D01*
X006496Y008183D01*
X006496Y008856D01*
X006738Y008856D01*
X006784Y008844D01*
X006825Y008820D01*
X006853Y008792D01*
X006881Y008820D01*
X006922Y008844D01*
X006968Y008856D01*
X007209Y008856D01*
X007209Y008183D01*
X007325Y008183D01*
X007325Y008856D01*
X007566Y008856D01*
X007612Y008844D01*
X007653Y008820D01*
X007687Y008787D01*
X007710Y008746D01*
X007723Y008700D01*
X007723Y008183D01*
X007325Y008183D01*
X007325Y008067D01*
X007723Y008067D01*
X007723Y007550D01*
X007710Y007504D01*
X007687Y007463D01*
X007653Y007430D01*
X007612Y007406D01*
X007566Y007394D01*
X007325Y007394D01*
X007325Y008067D01*
X007209Y008067D01*
X006811Y008067D01*
X006496Y008067D01*
X006496Y007394D01*
X006738Y007394D01*
X006784Y007406D01*
X006825Y007430D01*
X006853Y007458D01*
X006881Y007430D01*
X006922Y007406D01*
X006968Y007394D01*
X007209Y007394D01*
X007209Y008067D01*
X007209Y008183D01*
X006496Y008183D01*
X006496Y008067D01*
X006381Y008067D01*
X006381Y007394D01*
X006139Y007394D01*
X006094Y007406D01*
X006053Y007430D01*
X006019Y007463D01*
X005995Y007504D01*
X005983Y007550D01*
X005983Y008067D01*
X006381Y008067D01*
X006381Y007947D02*
X006496Y007947D01*
X006496Y007788D02*
X006381Y007788D01*
X006381Y007630D02*
X006496Y007630D01*
X006496Y007471D02*
X006381Y007471D01*
X006015Y007471D02*
X005091Y007471D01*
X005123Y007630D02*
X005983Y007630D01*
X005983Y007788D02*
X005532Y007788D01*
X005374Y007788D02*
X005123Y007788D01*
X005123Y007947D02*
X005183Y007947D01*
X005722Y007947D02*
X005983Y007947D01*
X006496Y008105D02*
X007209Y008105D01*
X007325Y008105D02*
X008981Y008105D01*
X008981Y008067D02*
X008583Y008067D01*
X008583Y007550D01*
X008595Y007504D01*
X008619Y007463D01*
X008653Y007430D01*
X008694Y007406D01*
X008739Y007394D01*
X008981Y007394D01*
X008981Y008067D01*
X008981Y007947D02*
X009096Y007947D01*
X009096Y007788D02*
X008981Y007788D01*
X008981Y007630D02*
X009096Y007630D01*
X009096Y007471D02*
X008981Y007471D01*
X008615Y007471D02*
X007691Y007471D01*
X007723Y007630D02*
X008583Y007630D01*
X008583Y007788D02*
X007723Y007788D01*
X007723Y007947D02*
X008583Y007947D01*
X008583Y008264D02*
X007723Y008264D01*
X007723Y008422D02*
X008583Y008422D01*
X008583Y008581D02*
X007723Y008581D01*
X007712Y008739D02*
X008594Y008739D01*
X008981Y008739D02*
X009096Y008739D01*
X009096Y008581D02*
X008981Y008581D01*
X008981Y008422D02*
X009096Y008422D01*
X009096Y008264D02*
X008981Y008264D01*
X009494Y008264D02*
X009553Y008264D01*
X009752Y008264D02*
X010176Y008264D01*
X010176Y008213D02*
X010534Y008213D01*
X010534Y008572D01*
X010332Y008572D01*
X010287Y008560D01*
X010245Y008536D01*
X010212Y008502D01*
X010188Y008461D01*
X010176Y008416D01*
X010176Y008213D01*
X010176Y008105D02*
X009926Y008105D01*
X010178Y008422D02*
X009494Y008422D01*
X009494Y008581D02*
X011742Y008581D01*
X011584Y008422D02*
X010928Y008422D01*
X010930Y008264D02*
X011425Y008264D01*
X011267Y008105D02*
X010930Y008105D01*
X010922Y007947D02*
X011108Y007947D01*
X010571Y008264D02*
X010534Y008264D01*
X010534Y008422D02*
X010571Y008422D01*
X009484Y008739D02*
X011901Y008739D01*
X012059Y008898D02*
X005653Y008898D01*
X005653Y009056D02*
X019268Y009056D01*
X019268Y009215D02*
X018596Y009215D01*
X018831Y009373D02*
X019268Y009373D01*
X019268Y009532D02*
X018916Y009532D01*
X018938Y009690D02*
X019268Y009690D01*
X019268Y009849D02*
X018908Y009849D01*
X017998Y009849D02*
X017908Y009849D01*
X017938Y009690D02*
X017968Y009690D01*
X017990Y009532D02*
X017916Y009532D01*
X017831Y009373D02*
X018074Y009373D01*
X018310Y009215D02*
X017596Y009215D01*
X017310Y009215D02*
X016596Y009215D01*
X016831Y009373D02*
X017074Y009373D01*
X016990Y009532D02*
X016916Y009532D01*
X016938Y009690D02*
X016968Y009690D01*
X016998Y009849D02*
X016908Y009849D01*
X015998Y009849D02*
X015908Y009849D01*
X015938Y009690D02*
X015968Y009690D01*
X015990Y009532D02*
X015916Y009532D01*
X015831Y009373D02*
X016074Y009373D01*
X016310Y009215D02*
X015596Y009215D01*
X015310Y009215D02*
X014596Y009215D01*
X014831Y009373D02*
X015074Y009373D01*
X014990Y009532D02*
X014916Y009532D01*
X014938Y009690D02*
X014968Y009690D01*
X014998Y009849D02*
X014908Y009849D01*
X013998Y009849D02*
X013908Y009849D01*
X013938Y009690D02*
X013968Y009690D01*
X013990Y009532D02*
X013916Y009532D01*
X013831Y009373D02*
X014074Y009373D01*
X014310Y009215D02*
X013596Y009215D01*
X013310Y009215D02*
X012596Y009215D01*
X012310Y009215D02*
X011596Y009215D01*
X011310Y009215D02*
X010596Y009215D01*
X010310Y009215D02*
X009596Y009215D01*
X009310Y009215D02*
X008596Y009215D01*
X008310Y009215D02*
X007596Y009215D01*
X007310Y009215D02*
X006596Y009215D01*
X006310Y009215D02*
X005596Y009215D01*
X005831Y009373D02*
X006074Y009373D01*
X005990Y009532D02*
X005916Y009532D01*
X005938Y009690D02*
X005968Y009690D01*
X005998Y009849D02*
X005908Y009849D01*
X006831Y009373D02*
X007074Y009373D01*
X006990Y009532D02*
X006916Y009532D01*
X006938Y009690D02*
X006968Y009690D01*
X006998Y009849D02*
X006908Y009849D01*
X007908Y009849D02*
X007998Y009849D01*
X007968Y009690D02*
X007938Y009690D01*
X007916Y009532D02*
X007990Y009532D01*
X008074Y009373D02*
X007831Y009373D01*
X008831Y009373D02*
X009074Y009373D01*
X008990Y009532D02*
X008916Y009532D01*
X008938Y009690D02*
X008968Y009690D01*
X008998Y009849D02*
X008908Y009849D01*
X009908Y009849D02*
X009998Y009849D01*
X009968Y009690D02*
X009938Y009690D01*
X009916Y009532D02*
X009990Y009532D01*
X010074Y009373D02*
X009831Y009373D01*
X010831Y009373D02*
X011074Y009373D01*
X010990Y009532D02*
X010916Y009532D01*
X010938Y009690D02*
X010968Y009690D01*
X010998Y009849D02*
X010908Y009849D01*
X011908Y009849D02*
X011998Y009849D01*
X011968Y009690D02*
X011938Y009690D01*
X011916Y009532D02*
X011990Y009532D01*
X012074Y009373D02*
X011831Y009373D01*
X012831Y009373D02*
X013074Y009373D01*
X012990Y009532D02*
X012916Y009532D01*
X012938Y009690D02*
X012968Y009690D01*
X012998Y009849D02*
X012908Y009849D01*
X014646Y008898D02*
X019268Y008898D01*
X019268Y008739D02*
X018405Y008739D01*
X018563Y008581D02*
X019268Y008581D01*
X019268Y008422D02*
X018673Y008422D01*
X018673Y008264D02*
X019268Y008264D01*
X019268Y008105D02*
X019194Y008105D01*
X018712Y008105D02*
X018673Y008105D01*
X018233Y008105D02*
X015653Y008105D01*
X015653Y008063D02*
X015653Y008240D01*
X015607Y008350D01*
X015597Y008360D01*
X018162Y008360D01*
X018233Y008289D01*
X018233Y006689D01*
X018362Y006560D01*
X018462Y006460D01*
X018519Y006460D01*
X018542Y006405D01*
X018678Y006269D01*
X018856Y006195D01*
X019049Y006195D01*
X019227Y006269D01*
X019268Y006309D01*
X019268Y006075D01*
X019217Y006112D01*
X019147Y006148D01*
X019071Y006172D01*
X018993Y006185D01*
X018981Y006185D01*
X018981Y005708D01*
X018925Y005708D01*
X018925Y006185D01*
X018913Y006185D01*
X018835Y006172D01*
X018759Y006148D01*
X018688Y006112D01*
X018624Y006065D01*
X018568Y006009D01*
X018521Y005945D01*
X018485Y005874D01*
X018460Y005798D01*
X018448Y005720D01*
X018448Y005708D01*
X018925Y005708D01*
X018925Y005652D01*
X018981Y005652D01*
X018981Y005175D01*
X018993Y005175D01*
X019071Y005188D01*
X019147Y005212D01*
X019217Y005248D01*
X019268Y005285D01*
X019268Y005051D01*
X019227Y005091D01*
X019049Y005165D01*
X018856Y005165D01*
X018678Y005091D01*
X018542Y004955D01*
X018468Y004776D01*
X018468Y004584D01*
X018542Y004405D01*
X018678Y004269D01*
X018856Y004195D01*
X019049Y004195D01*
X019227Y004269D01*
X019268Y004309D01*
X019268Y004051D01*
X019227Y004091D01*
X019049Y004165D01*
X018856Y004165D01*
X018678Y004091D01*
X018542Y003955D01*
X018468Y003776D01*
X018468Y003584D01*
X018542Y003405D01*
X018678Y003269D01*
X018856Y003195D01*
X019049Y003195D01*
X019227Y003269D01*
X019268Y003309D01*
X019268Y003051D01*
X019227Y003091D01*
X019049Y003165D01*
X018856Y003165D01*
X018678Y003091D01*
X018542Y002955D01*
X018468Y002776D01*
X018468Y002584D01*
X018542Y002405D01*
X018678Y002269D01*
X018856Y002195D01*
X019049Y002195D01*
X019227Y002269D01*
X019268Y002309D01*
X019268Y000360D01*
X018818Y000360D01*
X018864Y000405D01*
X018938Y000584D01*
X018938Y000776D01*
X018864Y000955D01*
X018727Y001091D01*
X018549Y001165D01*
X018356Y001165D01*
X018178Y001091D01*
X018042Y000955D01*
X017968Y000776D01*
X017968Y000584D01*
X018042Y000405D01*
X018087Y000360D01*
X017818Y000360D01*
X017864Y000405D01*
X017938Y000584D01*
X017938Y000776D01*
X017864Y000955D01*
X017737Y001081D01*
X017936Y001280D01*
X018053Y001397D01*
X018053Y001584D01*
X018088Y001584D01*
X018182Y001678D01*
X018182Y002261D01*
X018190Y002274D01*
X018202Y002320D01*
X018202Y002542D01*
X017824Y002542D01*
X017824Y002618D01*
X018202Y002618D01*
X018202Y002840D01*
X018190Y002886D01*
X018166Y002927D01*
X018133Y002960D01*
X018092Y002984D01*
X018046Y002996D01*
X017824Y002996D01*
X017824Y002618D01*
X017748Y002618D01*
X017748Y002996D01*
X017526Y002996D01*
X017521Y002995D01*
X017453Y003063D01*
X017336Y003180D01*
X015953Y003180D01*
X015953Y003599D01*
X015569Y003983D01*
X015756Y004171D01*
X015968Y004382D01*
X016005Y004345D01*
X016005Y003795D01*
X016099Y003701D01*
X017807Y003701D01*
X017900Y003795D01*
X017900Y004597D01*
X017807Y004690D01*
X016225Y004690D01*
X016211Y004705D01*
X016885Y004705D01*
X016885Y005112D01*
X017020Y005112D01*
X017020Y004705D01*
X017764Y004705D01*
X017810Y004717D01*
X017851Y004741D01*
X017884Y004774D01*
X017908Y004815D01*
X017920Y004861D01*
X017920Y005112D01*
X017020Y005112D01*
X017020Y005248D01*
X016885Y005248D01*
X016885Y005655D01*
X016142Y005655D01*
X016100Y005644D01*
X016125Y005670D01*
X017807Y005670D01*
X017900Y005763D01*
X017900Y006565D01*
X017807Y006659D01*
X016173Y006659D01*
X016173Y006789D01*
X016244Y006860D01*
X016373Y006989D01*
X016373Y007074D01*
X016852Y007074D01*
X016946Y007168D01*
X016946Y007190D01*
X016952Y007164D01*
X016976Y007123D01*
X017010Y007090D01*
X017051Y007066D01*
X017096Y007054D01*
X017422Y007054D01*
X017422Y007437D01*
X017508Y007437D01*
X017508Y007523D01*
X017989Y007523D01*
X017989Y007750D01*
X017977Y007796D01*
X017953Y007837D01*
X017920Y007870D01*
X017879Y007894D01*
X017833Y007906D01*
X017508Y007906D01*
X017508Y007523D01*
X017422Y007523D01*
X017422Y007906D01*
X017096Y007906D01*
X017051Y007894D01*
X017010Y007870D01*
X016976Y007837D01*
X016952Y007796D01*
X016946Y007770D01*
X016946Y007792D01*
X016852Y007886D01*
X016034Y007886D01*
X016007Y007950D01*
X015923Y008034D01*
X015813Y008080D01*
X015693Y008080D01*
X015653Y008063D01*
X015643Y008264D02*
X018233Y008264D01*
X018233Y007947D02*
X016009Y007947D01*
X016946Y007788D02*
X016950Y007788D01*
X017422Y007788D02*
X017508Y007788D01*
X017508Y007630D02*
X017422Y007630D01*
X017508Y007471D02*
X018233Y007471D01*
X018233Y007630D02*
X017989Y007630D01*
X017979Y007788D02*
X018233Y007788D01*
X017989Y007437D02*
X017508Y007437D01*
X017508Y007054D01*
X017833Y007054D01*
X017879Y007066D01*
X017920Y007090D01*
X017953Y007123D01*
X017977Y007164D01*
X017989Y007210D01*
X017989Y007437D01*
X017989Y007313D02*
X018233Y007313D01*
X018233Y007154D02*
X017971Y007154D01*
X018233Y006996D02*
X016373Y006996D01*
X016244Y006860D02*
X016244Y006860D01*
X016221Y006837D02*
X018233Y006837D01*
X018243Y006679D02*
X016173Y006679D01*
X016932Y007154D02*
X016958Y007154D01*
X017422Y007154D02*
X017508Y007154D01*
X017508Y007313D02*
X017422Y007313D01*
X017900Y006520D02*
X018402Y006520D01*
X018586Y006362D02*
X017900Y006362D01*
X017900Y006203D02*
X018838Y006203D01*
X018925Y006045D02*
X018981Y006045D01*
X019068Y006203D02*
X019268Y006203D01*
X018981Y005886D02*
X018925Y005886D01*
X018925Y005728D02*
X018981Y005728D01*
X018925Y005652D02*
X018448Y005652D01*
X018448Y005640D01*
X018460Y005562D01*
X018485Y005486D01*
X018521Y005415D01*
X018568Y005351D01*
X018624Y005295D01*
X018688Y005248D01*
X018759Y005212D01*
X018835Y005188D01*
X018913Y005175D01*
X018925Y005175D01*
X018925Y005652D01*
X018925Y005569D02*
X018981Y005569D01*
X018981Y005411D02*
X018925Y005411D01*
X018925Y005252D02*
X018981Y005252D01*
X019223Y005252D02*
X019268Y005252D01*
X019268Y005094D02*
X019221Y005094D01*
X018684Y005094D02*
X017920Y005094D01*
X017920Y005248D02*
X017920Y005499D01*
X017908Y005545D01*
X017884Y005586D01*
X017851Y005619D01*
X017810Y005643D01*
X017764Y005655D01*
X017020Y005655D01*
X017020Y005248D01*
X017920Y005248D01*
X017920Y005252D02*
X018683Y005252D01*
X018525Y005411D02*
X017920Y005411D01*
X017894Y005569D02*
X018459Y005569D01*
X018449Y005728D02*
X017864Y005728D01*
X017900Y005886D02*
X018491Y005886D01*
X018603Y006045D02*
X017900Y006045D01*
X017020Y005569D02*
X016885Y005569D01*
X016885Y005411D02*
X017020Y005411D01*
X017020Y005252D02*
X016885Y005252D01*
X016885Y005248D02*
X016885Y005112D01*
X015985Y005112D01*
X015985Y004930D01*
X015686Y005230D01*
X015997Y005541D01*
X015985Y005499D01*
X015985Y005248D01*
X016885Y005248D01*
X016885Y005094D02*
X017020Y005094D01*
X017020Y004935D02*
X016885Y004935D01*
X016885Y004777D02*
X017020Y004777D01*
X017886Y004777D02*
X018468Y004777D01*
X018534Y004935D02*
X017920Y004935D01*
X017879Y004618D02*
X018468Y004618D01*
X018519Y004460D02*
X017900Y004460D01*
X017900Y004301D02*
X018646Y004301D01*
X018803Y004143D02*
X017900Y004143D01*
X017900Y003984D02*
X018571Y003984D01*
X018488Y003826D02*
X017900Y003826D01*
X018468Y003667D02*
X015885Y003667D01*
X016005Y003826D02*
X015726Y003826D01*
X015569Y003984D02*
X016005Y003984D01*
X016005Y004143D02*
X015728Y004143D01*
X015886Y004301D02*
X016005Y004301D01*
X015981Y004935D02*
X015985Y004935D01*
X015985Y005094D02*
X015822Y005094D01*
X015708Y005252D02*
X015985Y005252D01*
X015985Y005411D02*
X015866Y005411D01*
X013661Y004460D02*
X010804Y004460D01*
X010856Y004407D02*
X010856Y004407D01*
X010963Y004301D02*
X013661Y004301D01*
X013703Y004143D02*
X013766Y004143D01*
X013834Y003984D02*
X014066Y003984D01*
X014067Y003826D02*
X013890Y003826D01*
X013981Y003739D02*
X013981Y003739D01*
X013641Y003509D02*
X012306Y003509D01*
X012353Y003667D02*
X013342Y003667D01*
X013253Y003826D02*
X012317Y003826D01*
X011914Y003350D02*
X013592Y003350D01*
X013433Y003192D02*
X012072Y003192D01*
X011980Y003284D02*
X011980Y003284D01*
X012231Y003033D02*
X013275Y003033D01*
X013116Y002875D02*
X012389Y002875D01*
X012548Y002716D02*
X012958Y002716D01*
X012857Y002558D02*
X012648Y002558D01*
X012564Y002399D02*
X012941Y002399D01*
X013100Y002241D02*
X012406Y002241D01*
X012396Y002082D02*
X013258Y002082D01*
X013667Y002082D02*
X013953Y002082D01*
X013953Y002241D02*
X013826Y002241D01*
X013953Y001924D02*
X012396Y001924D01*
X012396Y001765D02*
X013953Y001765D01*
X013953Y001607D02*
X012396Y001607D01*
X012396Y001448D02*
X013138Y001448D01*
X010953Y001924D02*
X010810Y001924D01*
X010866Y002082D02*
X010953Y002082D01*
X010076Y002716D02*
X009899Y002716D01*
X010034Y002875D02*
X010076Y002875D01*
X010434Y002875D02*
X010471Y002875D01*
X010471Y002813D02*
X010434Y002813D01*
X010434Y003172D01*
X010369Y003172D01*
X010377Y003180D01*
X010636Y003180D01*
X010674Y003218D01*
X010733Y003160D01*
X010751Y003141D01*
X010719Y003160D01*
X010673Y003172D01*
X010471Y003172D01*
X010471Y002813D01*
X010471Y003033D02*
X010434Y003033D01*
X010081Y003033D02*
X010053Y003033D01*
X010647Y003192D02*
X010701Y003192D01*
X010733Y003160D02*
X011082Y003510D01*
X011082Y003510D01*
X011083Y003510D02*
X011432Y003860D01*
X011083Y003510D01*
X011083Y003510D01*
X011082Y003510D02*
X010733Y003160D01*
X010764Y003192D02*
X010764Y003192D01*
X010923Y003350D02*
X010923Y003350D01*
X011081Y003509D02*
X011081Y003509D01*
X011240Y003667D02*
X011240Y003667D01*
X011398Y003826D02*
X011398Y003826D01*
X011467Y003826D02*
X011533Y003826D01*
X011280Y003984D02*
X013271Y003984D01*
X013403Y004143D02*
X011121Y004143D01*
X010932Y004618D02*
X010646Y004618D01*
X010644Y004620D02*
X010644Y004620D01*
X010773Y004777D02*
X010487Y004777D01*
X010615Y004935D02*
X010329Y004935D01*
X009915Y004935D02*
X009443Y004935D01*
X008966Y004777D02*
X008346Y004777D01*
X008813Y004935D02*
X008893Y004935D01*
X008896Y004706D02*
X008896Y004706D01*
X008979Y003826D02*
X009283Y003826D01*
X009264Y003667D02*
X008979Y003667D01*
X006951Y003826D02*
X005814Y003826D01*
X005767Y003667D02*
X006911Y003667D01*
X005230Y003667D02*
X005193Y003667D01*
X005193Y003826D02*
X005230Y003826D01*
X005230Y004143D02*
X005193Y004143D01*
X005193Y004301D02*
X005230Y004301D01*
X004129Y004935D02*
X006688Y004935D01*
X006003Y005728D02*
X005103Y005728D01*
X005103Y005886D02*
X006003Y005886D01*
X005664Y006045D02*
X005103Y006045D01*
X005103Y006203D02*
X005560Y006203D01*
X005562Y006362D02*
X005103Y006362D01*
X005103Y006520D02*
X005669Y006520D01*
X006003Y006679D02*
X005103Y006679D01*
X005103Y006837D02*
X006003Y006837D01*
X007209Y007471D02*
X007325Y007471D01*
X007325Y007630D02*
X007209Y007630D01*
X007209Y007788D02*
X007325Y007788D01*
X007325Y007947D02*
X007209Y007947D01*
X007209Y008264D02*
X007325Y008264D01*
X007325Y008422D02*
X007209Y008422D01*
X007209Y008581D02*
X007325Y008581D01*
X007325Y008739D02*
X007209Y008739D01*
X006496Y008739D02*
X006381Y008739D01*
X006381Y008581D02*
X006496Y008581D01*
X006496Y008422D02*
X006381Y008422D01*
X006381Y008264D02*
X006496Y008264D01*
X004396Y007154D02*
X004129Y007154D01*
X004129Y006996D02*
X004453Y006996D01*
X004231Y006837D02*
X004129Y006837D01*
X004129Y006679D02*
X004231Y006679D01*
X004231Y006520D02*
X004129Y006520D01*
X004038Y006362D02*
X004231Y006362D01*
X004231Y006203D02*
X002774Y006203D01*
X002810Y006045D02*
X002894Y006045D01*
X002915Y006362D02*
X002625Y006362D01*
X002824Y006520D02*
X001963Y006520D01*
X001963Y006452D02*
X001870Y006359D01*
X000753Y006359D01*
X000659Y006452D01*
X000659Y007372D01*
X000753Y007466D01*
X001870Y007466D01*
X001963Y007372D01*
X001963Y006452D01*
X001872Y006362D02*
X002281Y006362D01*
X002131Y006203D02*
X000633Y006203D01*
X000633Y006045D02*
X002096Y006045D01*
X002133Y005886D02*
X000633Y005886D01*
X000633Y005728D02*
X001889Y005728D01*
X001733Y005569D02*
X000633Y005569D01*
X000633Y005411D02*
X001733Y005411D01*
X001733Y005252D02*
X000633Y005252D01*
X000633Y005094D02*
X001733Y005094D01*
X001733Y004935D02*
X000633Y004935D01*
X000633Y004777D02*
X001733Y004777D01*
X001733Y004618D02*
X000633Y004618D01*
X000633Y004460D02*
X001733Y004460D01*
X001733Y004301D02*
X000633Y004301D01*
X000633Y004143D02*
X001733Y004143D01*
X002173Y003984D02*
X002316Y003984D01*
X002810Y004301D02*
X002885Y004301D01*
X002804Y004460D02*
X002779Y004460D01*
X002804Y004618D02*
X002652Y004618D01*
X002824Y004777D02*
X002173Y004777D01*
X002173Y004935D02*
X002824Y004935D01*
X002824Y005094D02*
X002173Y005094D01*
X002173Y005252D02*
X002824Y005252D01*
X002824Y005411D02*
X002694Y005411D01*
X004129Y005728D02*
X004231Y005728D01*
X004231Y005886D02*
X004129Y005886D01*
X004059Y006045D02*
X004231Y006045D01*
X002824Y006679D02*
X001963Y006679D01*
X001963Y006837D02*
X002824Y006837D01*
X002824Y006996D02*
X001963Y006996D01*
X001963Y007154D02*
X002824Y007154D01*
X002824Y007313D02*
X001963Y007313D01*
X002781Y007630D02*
X000633Y007630D01*
X000633Y007471D02*
X003953Y007471D01*
X000659Y007313D02*
X000633Y007313D01*
X000633Y007154D02*
X000659Y007154D01*
X000659Y006996D02*
X000633Y006996D01*
X000633Y006837D02*
X000659Y006837D01*
X000659Y006679D02*
X000633Y006679D01*
X000633Y006520D02*
X000659Y006520D01*
X000633Y006362D02*
X000750Y006362D01*
X002173Y004618D02*
X002254Y004618D01*
X003476Y004460D02*
X003476Y004460D01*
X003476Y004301D02*
X003476Y004301D01*
X004129Y003350D02*
X004635Y003350D01*
X004628Y003192D02*
X004129Y003192D01*
X004129Y003033D02*
X004628Y003033D01*
X001733Y002875D02*
X000633Y002875D01*
X000633Y002716D02*
X001733Y002716D01*
X001733Y002558D02*
X000633Y002558D01*
X000633Y002399D02*
X001733Y002399D01*
X001733Y002241D02*
X000633Y002241D01*
X000633Y002082D02*
X001733Y002082D01*
X001733Y001924D02*
X000633Y001924D01*
X000633Y001765D02*
X001733Y001765D01*
X001733Y001607D02*
X000633Y001607D01*
X000633Y001448D02*
X001610Y001448D01*
X001451Y001290D02*
X000633Y001290D01*
X000633Y001131D02*
X001275Y001131D01*
X001060Y000973D02*
X000633Y000973D01*
X000633Y000814D02*
X000984Y000814D01*
X000968Y000656D02*
X000633Y000656D01*
X000633Y000497D02*
X001004Y000497D01*
X001433Y001271D02*
X001433Y001271D01*
X004631Y001131D02*
X005275Y001131D01*
X005060Y000973D02*
X004846Y000973D01*
X004922Y000814D02*
X004984Y000814D01*
X004968Y000656D02*
X004938Y000656D01*
X004902Y000497D02*
X005004Y000497D01*
X000659Y003033D02*
X000633Y003033D01*
X000633Y003192D02*
X000659Y003192D01*
X000659Y003350D02*
X000633Y003350D01*
X000633Y003509D02*
X000659Y003509D01*
X000659Y003667D02*
X000633Y003667D01*
X000633Y003826D02*
X000659Y003826D01*
X000633Y003984D02*
X000735Y003984D01*
X008653Y006996D02*
X009453Y006996D01*
X012155Y008371D02*
X012259Y008475D01*
X013896Y008475D01*
X013896Y008432D01*
X013934Y008394D01*
X013912Y008372D01*
X013888Y008331D01*
X013876Y008286D01*
X013876Y008083D01*
X014234Y008083D01*
X014234Y008047D01*
X013899Y008047D01*
X013762Y008183D01*
X013529Y008416D01*
X013396Y008416D01*
X012857Y007877D01*
X012857Y007744D01*
X012922Y007680D01*
X012893Y007680D01*
X012783Y007634D01*
X012699Y007550D01*
X012661Y007460D01*
X012613Y007480D01*
X012536Y007480D01*
X012460Y007556D01*
X012648Y007744D01*
X012648Y007877D01*
X012155Y008371D01*
X012206Y008422D02*
X013906Y008422D01*
X013876Y008264D02*
X013682Y008264D01*
X013840Y008105D02*
X013876Y008105D01*
X014234Y008047D02*
X014271Y008047D01*
X014271Y007688D01*
X014433Y007688D01*
X014433Y007527D01*
X014423Y007533D01*
X014408Y007537D01*
X014234Y007711D01*
X014234Y008047D01*
X014234Y007947D02*
X014271Y007947D01*
X014271Y007788D02*
X014234Y007788D01*
X014316Y007630D02*
X014433Y007630D01*
X013244Y008264D02*
X012262Y008264D01*
X012420Y008105D02*
X013085Y008105D01*
X012927Y007947D02*
X012579Y007947D01*
X012648Y007788D02*
X012857Y007788D01*
X012778Y007630D02*
X012533Y007630D01*
X012634Y007471D02*
X012666Y007471D01*
X019103Y004143D02*
X019268Y004143D01*
X019259Y004301D02*
X019268Y004301D01*
X018499Y003509D02*
X015953Y003509D01*
X015953Y003350D02*
X018597Y003350D01*
X018620Y003033D02*
X017483Y003033D01*
X017748Y002875D02*
X017824Y002875D01*
X017824Y002716D02*
X017748Y002716D01*
X017824Y002558D02*
X018479Y002558D01*
X018548Y002399D02*
X018202Y002399D01*
X018182Y002241D02*
X018747Y002241D01*
X019159Y002241D02*
X019268Y002241D01*
X019268Y002082D02*
X018182Y002082D01*
X018182Y001924D02*
X019268Y001924D01*
X019268Y001765D02*
X018182Y001765D01*
X018111Y001607D02*
X019268Y001607D01*
X019268Y001448D02*
X018053Y001448D01*
X017945Y001290D02*
X019268Y001290D01*
X019268Y001131D02*
X018631Y001131D01*
X018846Y000973D02*
X019268Y000973D01*
X019268Y000814D02*
X018922Y000814D01*
X018938Y000656D02*
X019268Y000656D01*
X019268Y000497D02*
X018902Y000497D01*
X018004Y000497D02*
X017902Y000497D01*
X017938Y000656D02*
X017968Y000656D01*
X017984Y000814D02*
X017922Y000814D01*
X017846Y000973D02*
X018060Y000973D01*
X018275Y001131D02*
X017787Y001131D01*
X018202Y002716D02*
X018468Y002716D01*
X018509Y002875D02*
X018193Y002875D01*
X019268Y003192D02*
X015953Y003192D01*
D25*
X012053Y003680D02*
X011698Y003680D01*
X011305Y003287D01*
X010853Y002835D01*
X010853Y002380D01*
X010638Y002165D01*
X009068Y002165D01*
X008853Y002380D01*
X008453Y002380D01*
X008353Y002480D01*
X008565Y002480D01*
X008353Y002480D02*
X008053Y002480D01*
X007495Y003038D01*
X007495Y003080D02*
X007495Y004522D01*
X007853Y004880D01*
X008138Y004880D01*
X008538Y005280D01*
X008538Y006795D01*
X008353Y006980D01*
X010053Y007680D02*
X010453Y007680D01*
X010553Y007580D01*
X011153Y007580D01*
X011253Y007680D01*
X011253Y007571D01*
X011528Y007296D01*
X011253Y007680D02*
X011253Y007780D01*
X012168Y008695D01*
X014253Y008695D01*
X014268Y008680D02*
X014553Y008680D01*
X014653Y008580D01*
X018253Y008580D01*
X018453Y008380D01*
X018453Y006780D01*
X018553Y006680D01*
X018953Y006680D01*
X016441Y007480D02*
X016153Y007192D01*
X016153Y007080D01*
X015953Y006880D01*
X015953Y006180D01*
X015537Y005764D01*
X015537Y005737D01*
X014653Y007080D02*
X014653Y008580D01*
X014253Y007780D02*
X014453Y007580D01*
X014453Y007480D02*
X014253Y007680D01*
X014253Y007780D01*
X014453Y007480D02*
X014453Y007380D01*
X014200Y007128D01*
X006053Y002880D02*
X006053Y001880D01*
X005753Y001580D01*
X004353Y001580D01*
X003453Y000680D01*
X003353Y001180D02*
X003553Y001380D01*
X003553Y002068D01*
X003670Y002174D02*
X005211Y002174D01*
X006053Y002880D02*
X005853Y003080D01*
X005211Y003080D01*
X001953Y001480D02*
X001653Y001180D01*
X003353Y001180D01*
X001953Y001480D02*
X001953Y005480D01*
X002053Y005580D01*
X002553Y005580D01*
X002783Y005810D01*
X003476Y005810D01*
X003138Y007880D02*
X002653Y007880D01*
X002453Y008080D01*
X002453Y009680D01*
X001653Y001180D02*
X001453Y000980D01*
X001453Y000680D01*
D26*
X002553Y002980D03*
X006953Y005080D03*
X007253Y005380D03*
X005853Y006280D03*
X008353Y006980D03*
X010053Y007680D03*
X009653Y007980D03*
X010153Y006780D03*
X011053Y005980D03*
X011753Y005780D03*
X010853Y005380D03*
X011753Y006380D03*
X012153Y006480D03*
X012653Y006680D03*
X012553Y007180D03*
X012953Y007380D03*
X012853Y008280D03*
X014953Y007380D03*
X015753Y007780D03*
X015353Y008180D03*
X015053Y007880D03*
X017853Y008180D03*
X018753Y008580D03*
X014753Y005080D03*
X014453Y004780D03*
X013953Y004380D03*
X013553Y003880D03*
X012053Y003680D03*
X011853Y004280D03*
X010153Y003380D03*
X009553Y003580D03*
X009453Y004080D03*
X008853Y004380D03*
X009753Y002980D03*
X015153Y002480D03*
X015253Y003480D03*
X005453Y008080D03*
D27*
X005453Y008980D01*
X005253Y009180D01*
X003653Y009180D01*
X003453Y009380D01*
X003453Y009680D01*
X003768Y008480D02*
X003768Y007880D01*
X004053Y007880D01*
X004153Y007780D01*
X004153Y007480D01*
X004253Y007380D01*
X004453Y007380D01*
X004653Y007180D01*
X004653Y006249D01*
X004667Y006235D01*
X005853Y006280D02*
X005898Y006235D01*
X006439Y006235D01*
X007138Y005495D02*
X007253Y005380D01*
X007138Y005495D02*
X003476Y005495D01*
X003476Y005180D02*
X006853Y005180D01*
X006953Y005080D01*
X007553Y005180D02*
X006653Y004380D01*
X004253Y004380D01*
X004253Y004180D01*
X004353Y004080D01*
X002553Y002980D02*
X002553Y002268D01*
X007553Y005180D02*
X007753Y005180D01*
X007953Y005480D01*
X007953Y009080D01*
X008053Y009180D01*
X018353Y009180D01*
X018753Y008780D01*
X018753Y008580D01*
X017853Y008180D02*
X017465Y007792D01*
X017465Y007480D01*
X015753Y007780D02*
X015753Y006480D01*
X015314Y006041D01*
X015091Y006218D02*
X015453Y006580D01*
X015453Y008080D01*
X015353Y008180D01*
X015053Y007880D02*
X015253Y007680D01*
X015253Y006780D01*
X014953Y006480D01*
X014878Y006405D01*
X014869Y006405D01*
X014646Y006628D02*
X014646Y006673D01*
X014953Y006980D01*
X014953Y007380D01*
X014453Y007380D02*
X014453Y007680D01*
X014253Y007680D01*
X014253Y008080D01*
X013953Y008080D01*
X013553Y008480D01*
X013053Y008480D01*
X012853Y008280D01*
X013514Y007741D02*
X013532Y007741D01*
X013514Y007741D02*
X013153Y007380D01*
X012953Y007380D01*
X012553Y007180D02*
X011992Y007741D01*
X011973Y007741D01*
X011814Y007518D02*
X011751Y007518D01*
X011814Y007518D02*
X012653Y006680D01*
X012153Y006480D02*
X011953Y006680D01*
X011653Y006680D01*
X011305Y007028D01*
X011305Y007073D01*
X011083Y006850D02*
X011153Y006780D01*
X011083Y006850D02*
X011053Y006880D01*
X011083Y006850D02*
X011083Y006850D01*
X011553Y006380D01*
X011753Y006380D01*
X011753Y005780D02*
X010953Y006580D01*
X010905Y006628D01*
X010860Y006628D01*
X010637Y006405D02*
X010637Y006396D01*
X010653Y006380D01*
X011053Y005980D01*
X010414Y006182D02*
X010351Y006182D01*
X010153Y006380D01*
X010153Y006444D01*
X010153Y006480D01*
X010153Y006780D01*
X009039Y006235D02*
X009039Y005409D01*
X009168Y005280D01*
X010553Y005280D01*
X011153Y004680D01*
X014144Y004680D01*
X014869Y003955D01*
X015091Y004178D02*
X015753Y003516D01*
X015753Y003080D01*
X015853Y002980D01*
X017253Y002980D01*
X017353Y002880D01*
X017353Y002080D01*
X017453Y001980D01*
X017553Y001980D01*
X017620Y001913D01*
X017853Y001913D01*
X017853Y001480D01*
X017653Y001280D01*
X016653Y001280D01*
X016453Y001080D01*
X016453Y000680D01*
X015453Y000680D02*
X015453Y001080D01*
X015353Y001180D01*
X014853Y001180D01*
X014753Y001280D01*
X014753Y003180D01*
X014953Y003180D01*
X015253Y003480D01*
X014753Y003180D02*
X014423Y003510D01*
X014246Y003287D02*
X014553Y002980D01*
X014453Y002980D01*
X013553Y003880D01*
X013953Y004380D02*
X014098Y004280D01*
X013953Y004380D02*
X014600Y003732D01*
X014646Y003732D01*
X015232Y004401D02*
X015153Y004480D01*
X014953Y004680D01*
X014553Y004680D01*
X014453Y004780D01*
X014753Y005080D02*
X014953Y004880D01*
X015253Y004880D01*
X015453Y004680D01*
X015510Y004623D01*
X015537Y004623D01*
X015314Y004401D02*
X015232Y004401D01*
X015553Y005080D02*
X016253Y004380D01*
X016437Y004196D01*
X016953Y004196D01*
X016769Y004380D02*
X016253Y004380D01*
X015553Y005080D02*
X015153Y005080D01*
X013353Y006880D01*
X013353Y007080D01*
X013453Y007180D01*
X013755Y007482D01*
X013755Y007518D01*
X013978Y007296D02*
X013653Y006971D01*
X013653Y006880D01*
X015253Y005280D01*
X015453Y005280D01*
X016337Y006164D01*
X016953Y006164D01*
X014653Y007080D02*
X014423Y006850D01*
X014200Y007073D02*
X014200Y007128D01*
X014453Y007480D02*
X014453Y007580D01*
X014353Y007680D01*
X010653Y005480D02*
X010192Y005941D01*
X010192Y005959D01*
X009969Y005764D02*
X009969Y005737D01*
X009969Y005764D02*
X009653Y006080D01*
X009653Y007980D01*
X009039Y006235D02*
X009039Y006009D01*
X009168Y005880D01*
X009168Y006106D01*
X010653Y005480D02*
X010753Y005480D01*
X010853Y005380D01*
X010753Y005380D01*
X010753Y005398D01*
X009969Y004623D02*
X009096Y004623D01*
X008853Y004380D01*
X009453Y004080D02*
X009853Y004080D01*
X010149Y004376D01*
X010160Y004376D01*
X010184Y004401D01*
X010192Y004401D01*
X010173Y004401D02*
X010160Y004376D01*
X010351Y004178D02*
X010303Y004130D01*
X010053Y003880D01*
X009853Y003880D01*
X009553Y003580D01*
X009753Y003380D02*
X009753Y002980D01*
X009753Y003380D02*
X010053Y003680D01*
X010353Y003680D01*
X010553Y003880D01*
X010628Y003955D01*
X010637Y003955D01*
X010860Y003732D02*
X010860Y003687D01*
X010803Y003630D01*
X010553Y003380D01*
X010153Y003380D01*
X011083Y003510D02*
X011853Y004280D01*
X010414Y004178D02*
X010351Y004178D01*
X009953Y004580D02*
X009969Y004596D01*
X009969Y004623D01*
X011528Y003064D02*
X011528Y003055D01*
X011153Y002680D01*
X011153Y001780D01*
X010953Y001580D01*
X010253Y001580D01*
X010053Y001380D01*
X009453Y001380D01*
X009253Y001180D01*
X008553Y001180D01*
X008453Y001080D01*
X008453Y000680D01*
X009453Y000680D02*
X009453Y000980D01*
X009653Y001180D01*
X010153Y001180D01*
X010353Y001380D01*
X011053Y001380D01*
X011353Y001680D01*
X011353Y002380D01*
X011751Y002778D01*
X011751Y002842D01*
X011973Y002619D02*
X011973Y002601D01*
X011953Y002580D01*
X011653Y002280D01*
X011653Y001480D01*
X011553Y001380D01*
X011353Y001380D01*
X011153Y001180D01*
X010553Y001180D01*
X010453Y001080D01*
X010453Y000680D01*
X011453Y000680D02*
X011453Y001080D01*
X011553Y001180D01*
X012053Y001180D01*
X012196Y001323D01*
X012196Y002396D01*
X013755Y002842D02*
X013791Y002842D01*
X014153Y002480D01*
X014153Y001480D01*
X014053Y001380D01*
X013353Y001380D01*
X013153Y001180D01*
X012553Y001180D01*
X012453Y001080D01*
X012453Y000680D01*
X013453Y000680D02*
X013453Y001080D01*
X013553Y001180D01*
X014253Y001180D01*
X014353Y001280D01*
X014353Y002680D01*
X013978Y003055D01*
X013978Y003064D01*
X014553Y002980D02*
X014553Y000780D01*
X014453Y000680D01*
X016268Y001880D02*
X016820Y001880D01*
X016920Y001980D01*
X016820Y002480D02*
X016268Y002480D01*
X016820Y002480D02*
X016920Y002580D01*
X017553Y001980D02*
X017786Y001980D01*
M02*
