G75*
G70*
%OFA0B0*%
%FSLAX24Y24*%
%IPPOS*%
%LPD*%
%AMOC8*
5,1,8,0,0,1.08239X$1,22.5*
%
%ADD10C,0.0730*%
%ADD11C,0.0434*%
%ADD12C,0.0360*%
D10*
X001453Y000680D03*
X002453Y000680D03*
X003453Y000680D03*
X004453Y000680D03*
X005453Y000680D03*
X006453Y000680D03*
X007453Y000680D03*
X008453Y000680D03*
X009453Y000680D03*
X010453Y000680D03*
X011453Y000680D03*
X012453Y000680D03*
X013453Y000680D03*
X014453Y000680D03*
X015453Y000680D03*
X016453Y000680D03*
X017453Y000680D03*
X018453Y000680D03*
X018953Y002680D03*
X018953Y003680D03*
X018953Y004680D03*
X018953Y005680D03*
X018953Y006680D03*
X018953Y007680D03*
X018453Y009680D03*
X017453Y009680D03*
X016453Y009680D03*
X015453Y009680D03*
X014453Y009680D03*
X013453Y009680D03*
X012453Y009680D03*
X011453Y009680D03*
X010453Y009680D03*
X009453Y009680D03*
X008453Y009680D03*
X007453Y009680D03*
X006453Y009680D03*
X005453Y009680D03*
X004453Y009680D03*
X003453Y009680D03*
X002453Y009680D03*
X001453Y009680D03*
D11*
X002453Y006046D03*
X002453Y004314D03*
D12*
X002553Y002980D03*
X006953Y005080D03*
X007253Y005380D03*
X005853Y006280D03*
X008353Y006980D03*
X010053Y007680D03*
X009653Y007980D03*
X010153Y006780D03*
X011053Y005980D03*
X011753Y005780D03*
X010853Y005380D03*
X011753Y006380D03*
X012153Y006480D03*
X012653Y006680D03*
X012553Y007180D03*
X012953Y007380D03*
X012853Y008280D03*
X014953Y007380D03*
X015753Y007780D03*
X015353Y008180D03*
X015053Y007880D03*
X017853Y008180D03*
X018753Y008580D03*
X014753Y005080D03*
X014453Y004780D03*
X013953Y004380D03*
X013553Y003880D03*
X012053Y003680D03*
X011853Y004280D03*
X010153Y003380D03*
X009553Y003580D03*
X009453Y004080D03*
X008853Y004380D03*
X009753Y002980D03*
X015153Y002480D03*
X015253Y003480D03*
X005453Y008080D03*
M02*
